<?xml version="1.0" encoding="UTF-8" standalone="yes" ?>
<svg xmlns="http://www.w3.org/2000/svg" height="452" width="452">
  <script type="text/ecmascript">
    <![CDATA[
      var shown = 1;
      function click() {
        var seq = document.getElementById("seq");
        if (shown==1) {
          seq.setAttribute("style", "visibility: hidden");
          shown = 0;
        } else {
          seq.setAttribute("style", "visibility: visible");
          shown = 1;
        }
      }
    ]]>
  </script>
  <style type="text/css">
    <![CDATA[
      .nucleotide {
        font-family: SansSerif;
      }
      .backbone {
        stroke: grey;
        fill:   none;
        stroke-width: 1.5;
      }
      .basepairs {
        stroke: red;
        fill:   none;
        stroke-width: 2.5;
      }
    ]]>
  </style>

  <rect style="stroke: white; fill: white" height="452" x="0" y="0" width="452" onclick="click(evt)" />
  <g transform="scale(0.555988,0.555988) translate(301.283447,304.928955)">
    <polyline class="backbone" id="outline" points="
      95.843,-278.628
      95.450,-263.633
      95.057,-248.638
      94.665,-233.643
      94.272,-218.649
      93.879,-203.654
      93.487,-188.659
      93.094,-173.664
      92.701,-158.669
      89.340,-151.983
      92.500,-143.278
      92.500,-128.278
      79.017,-121.900
      69.601,-110.253
      66.162,-95.613
      69.434,-80.872
      78.820,-68.964
      92.500,-62.285
      92.500,-47.285
      92.500,-32.285
      81.819,-21.967
      81.605,-6.755
      92.500,4.378
      92.500,19.378
      92.500,34.378
      84.763,47.105
      92.500,60.905
      92.500,75.905
      92.500,90.905
      85.676,103.109
      92.500,115.312
      89.340,124.017
      92.701,130.704
      93.094,145.698
      93.487,160.693
      86.113,174.691
      94.181,187.212
      94.574,202.207
      94.967,217.201
      95.359,232.196
      95.752,247.191
      96.144,262.186
      86.328,269.149
      81.197,279.902
      81.944,291.672
      88.263,301.487
      98.456,306.925
      99.633,321.879
      93.002,336.243
      101.714,348.324
      102.891,363.278
      104.068,378.232
      105.245,393.186
      106.422,408.139
      107.599,423.093
      108.775,438.047
      109.952,453.001
      98.066,462.975
      94.346,478.040
      100.221,492.401
      113.434,500.538
      128.904,499.320
      140.681,489.217
      144.238,474.113
      138.206,459.816
      124.906,451.824
      123.729,436.870
      122.552,421.916
      121.375,406.962
      120.199,392.009
      119.022,377.055
      117.845,362.101
      116.668,347.147
      123.383,333.852
      114.587,320.702
      113.410,305.748
      126.112,292.692
      125.349,274.176
      111.139,261.793
      110.747,246.798
      110.354,231.804
      109.961,216.809
      109.569,201.814
      109.176,186.819
      116.578,173.894
      108.482,160.301
      108.089,145.306
      107.696,130.311
      107.500,115.312
      114.324,103.109
      107.500,90.905
      107.500,75.905
      107.500,60.905
      115.237,47.105
      107.500,34.378
      107.500,19.378
      107.500,4.378
      118.395,-6.755
      118.181,-21.967
      107.500,-32.285
      107.500,-47.285
      107.500,-62.285
      121.180,-68.964
      130.566,-80.872
      133.838,-95.613
      130.399,-110.253
      120.983,-121.900
      107.500,-128.278
      107.500,-143.278
      107.696,-158.277
      108.089,-173.271
      108.482,-188.266
      108.874,-203.261
      109.267,-218.256
      109.660,-233.251
      110.052,-248.246
      110.445,-263.241
      110.838,-278.235
      113.532,-297.429
    " />
    <g id="pairs">
      <line class="basepairs" id="1,118" x1="95.84272" y1="-278.62808" x2="110.83758" y2="-278.23541" />
      <line class="basepairs" id="2,117" x1="95.45007" y1="-263.63321" x2="110.44492" y2="-263.24057" />
      <line class="basepairs" id="3,116" x1="95.05741" y1="-248.63837" x2="110.05227" y2="-248.24570" />
      <line class="basepairs" id="4,115" x1="94.66476" y1="-233.64349" x2="109.65961" y2="-233.25085" />
      <line class="basepairs" id="5,114" x1="94.27210" y1="-218.64865" x2="109.26696" y2="-218.25598" />
      <line class="basepairs" id="6,113" x1="93.87945" y1="-203.65378" x2="108.87431" y2="-203.26111" />
      <line class="basepairs" id="7,112" x1="93.48679" y1="-188.65891" x2="108.48165" y2="-188.26627" />
      <line class="basepairs" id="8,111" x1="93.09414" y1="-173.66406" x2="108.08900" y2="-173.27139" />
      <line class="basepairs" id="9,110" x1="92.70148" y1="-158.66919" x2="107.69634" y2="-158.27655" />
      <line class="basepairs" id="11,109" x1="92.50000" y1="-143.27783" x2="107.50000" y2="-143.27783" />
      <line class="basepairs" id="12,108" x1="92.50000" y1="-128.27783" x2="107.50000" y2="-128.27783" />
      <line class="basepairs" id="18,102" x1="92.50000" y1="-62.28513" x2="107.50000" y2="-62.28513" />
      <line class="basepairs" id="19,101" x1="92.50000" y1="-47.28513" x2="107.50000" y2="-47.28513" />
      <line class="basepairs" id="20,100" x1="92.50000" y1="-32.28513" x2="107.50000" y2="-32.28513" />
      <line class="basepairs" id="23,97" x1="92.50000" y1="4.37782" x2="107.50000" y2="4.37782" />
      <line class="basepairs" id="24,96" x1="92.50000" y1="19.37782" x2="107.50000" y2="19.37782" />
      <line class="basepairs" id="25,95" x1="92.50000" y1="34.37782" x2="107.50000" y2="34.37782" />
      <line class="basepairs" id="27,93" x1="92.50000" y1="60.90526" x2="107.50000" y2="60.90526" />
      <line class="basepairs" id="28,92" x1="92.50000" y1="75.90527" x2="107.50000" y2="75.90527" />
      <line class="basepairs" id="29,91" x1="92.50000" y1="90.90527" x2="107.50000" y2="90.90527" />
      <line class="basepairs" id="31,89" x1="92.50000" y1="115.31226" x2="107.50000" y2="115.31226" />
      <line class="basepairs" id="33,88" x1="92.70148" y1="130.70364" x2="107.69634" y2="130.31097" />
      <line class="basepairs" id="34,87" x1="93.09414" y1="145.69849" x2="108.08900" y2="145.30585" />
      <line class="basepairs" id="35,86" x1="93.48679" y1="160.69336" x2="108.48165" y2="160.30069" />
      <line class="basepairs" id="37,84" x1="94.18120" y1="187.21170" x2="109.17606" y2="186.81905" />
      <line class="basepairs" id="38,83" x1="94.57385" y1="202.20657" x2="109.56872" y2="201.81392" />
      <line class="basepairs" id="39,82" x1="94.96651" y1="217.20143" x2="109.96136" y2="216.80878" />
      <line class="basepairs" id="40,81" x1="95.35916" y1="232.19629" x2="110.35402" y2="231.80363" />
      <line class="basepairs" id="41,80" x1="95.75182" y1="247.19115" x2="110.74667" y2="246.79849" />
      <line class="basepairs" id="42,79" x1="96.14447" y1="262.18600" x2="111.13933" y2="261.79333" />
      <line class="basepairs" id="47,76" x1="98.45594" y1="306.92490" x2="113.40971" y2="305.74802" />
      <line class="basepairs" id="48,75" x1="99.63283" y1="321.87866" x2="114.58659" y2="320.70178" />
      <line class="basepairs" id="50,73" x1="101.71415" y1="348.32434" x2="116.66791" y2="347.14746" />
      <line class="basepairs" id="51,72" x1="102.89104" y1="363.27808" x2="117.84480" y2="362.10120" />
      <line class="basepairs" id="52,71" x1="104.06792" y1="378.23184" x2="119.02168" y2="377.05496" />
      <line class="basepairs" id="53,70" x1="105.24481" y1="393.18561" x2="120.19857" y2="392.00873" />
      <line class="basepairs" id="54,69" x1="106.42169" y1="408.13934" x2="121.37546" y2="406.96246" />
      <line class="basepairs" id="55,68" x1="107.59858" y1="423.09314" x2="122.55235" y2="421.91626" />
      <line class="basepairs" id="56,67" x1="108.77547" y1="438.04688" x2="123.72923" y2="436.87000" />
      <line class="basepairs" id="57,66" x1="109.95235" y1="453.00064" x2="124.90611" y2="451.82376" />
    </g>
    <g transform="translate(-4.6, 4)" id="seq">
      <text class="nucleotide" x="95.843" y="-278.628">G</text>
      <text class="nucleotide" x="95.450" y="-263.633">U</text>
      <text class="nucleotide" x="95.057" y="-248.638">G</text>
      <text class="nucleotide" x="94.665" y="-233.643">U</text>
      <text class="nucleotide" x="94.272" y="-218.649">A</text>
      <text class="nucleotide" x="93.879" y="-203.654">C</text>
      <text class="nucleotide" x="93.487" y="-188.659">G</text>
      <text class="nucleotide" x="93.094" y="-173.664">C</text>
      <text class="nucleotide" x="92.701" y="-158.669">C</text>
      <text class="nucleotide" x="89.340" y="-151.983">C</text>
      <text class="nucleotide" x="92.500" y="-143.278">A</text>
      <text class="nucleotide" x="92.500" y="-128.278">U</text>
      <text class="nucleotide" x="79.017" y="-121.900">A</text>
      <text class="nucleotide" x="69.601" y="-110.253">G</text>
      <text class="nucleotide" x="66.162" y="-95.613">C</text>
      <text class="nucleotide" x="69.434" y="-80.872">C</text>
      <text class="nucleotide" x="78.820" y="-68.964">C</text>
      <text class="nucleotide" x="92.500" y="-62.285">G</text>
      <text class="nucleotide" x="92.500" y="-47.285">U</text>
      <text class="nucleotide" x="92.500" y="-32.285">U</text>
      <text class="nucleotide" x="81.819" y="-21.967">G</text>
      <text class="nucleotide" x="81.605" y="-6.755">A</text>
      <text class="nucleotide" x="92.500" y="4.378">A</text>
      <text class="nucleotide" x="92.500" y="19.378">A</text>
      <text class="nucleotide" x="92.500" y="34.378">G</text>
      <text class="nucleotide" x="84.763" y="47.105">C</text>
      <text class="nucleotide" x="92.500" y="60.905">A</text>
      <text class="nucleotide" x="92.500" y="75.905">C</text>
      <text class="nucleotide" x="92.500" y="90.905">G</text>
      <text class="nucleotide" x="85.676" y="103.109">C</text>
      <text class="nucleotide" x="92.500" y="115.312">C</text>
      <text class="nucleotide" x="89.340" y="124.017">A</text>
      <text class="nucleotide" x="92.701" y="130.704">U</text>
      <text class="nucleotide" x="93.094" y="145.698">C</text>
      <text class="nucleotide" x="93.487" y="160.693">C</text>
      <text class="nucleotide" x="86.113" y="174.691">C</text>
      <text class="nucleotide" x="94.181" y="187.212">G</text>
      <text class="nucleotide" x="94.574" y="202.207">U</text>
      <text class="nucleotide" x="94.967" y="217.201">C</text>
      <text class="nucleotide" x="95.359" y="232.196">C</text>
      <text class="nucleotide" x="95.752" y="247.191">G</text>
      <text class="nucleotide" x="96.144" y="262.186">A</text>
      <text class="nucleotide" x="86.328" y="269.149">U</text>
      <text class="nucleotide" x="81.197" y="279.902">C</text>
      <text class="nucleotide" x="81.944" y="291.672">U</text>
      <text class="nucleotide" x="88.263" y="301.487">G</text>
      <text class="nucleotide" x="98.456" y="306.925">G</text>
      <text class="nucleotide" x="99.633" y="321.879">C</text>
      <text class="nucleotide" x="93.002" y="336.243">A</text>
      <text class="nucleotide" x="101.714" y="348.324">A</text>
      <text class="nucleotide" x="102.891" y="363.278">G</text>
      <text class="nucleotide" x="104.068" y="378.232">U</text>
      <text class="nucleotide" x="105.245" y="393.186">U</text>
      <text class="nucleotide" x="106.422" y="408.139">A</text>
      <text class="nucleotide" x="107.599" y="423.093">A</text>
      <text class="nucleotide" x="108.775" y="438.047">G</text>
      <text class="nucleotide" x="109.952" y="453.001">C</text>
      <text class="nucleotide" x="98.066" y="462.975">A</text>
      <text class="nucleotide" x="94.346" y="478.040">A</text>
      <text class="nucleotide" x="100.221" y="492.401">C</text>
      <text class="nucleotide" x="113.434" y="500.538">G</text>
      <text class="nucleotide" x="128.904" y="499.320">C</text>
      <text class="nucleotide" x="140.681" y="489.217">U</text>
      <text class="nucleotide" x="144.238" y="474.113">G</text>
      <text class="nucleotide" x="138.206" y="459.816">C</text>
      <text class="nucleotide" x="124.906" y="451.824">G</text>
      <text class="nucleotide" x="123.729" y="436.870">C</text>
      <text class="nucleotide" x="122.552" y="421.916">U</text>
      <text class="nucleotide" x="121.375" y="406.962">U</text>
      <text class="nucleotide" x="120.199" y="392.009">G</text>
      <text class="nucleotide" x="119.022" y="377.055">A</text>
      <text class="nucleotide" x="117.845" y="362.101">U</text>
      <text class="nucleotide" x="116.668" y="347.147">U</text>
      <text class="nucleotide" x="123.383" y="333.852">A</text>
      <text class="nucleotide" x="114.587" y="320.702">G</text>
      <text class="nucleotide" x="113.410" y="305.748">U</text>
      <text class="nucleotide" x="126.112" y="292.692">A</text>
      <text class="nucleotide" x="125.349" y="274.176">C</text>
      <text class="nucleotide" x="111.139" y="261.793">U</text>
      <text class="nucleotide" x="110.747" y="246.798">U</text>
      <text class="nucleotide" x="110.354" y="231.804">G</text>
      <text class="nucleotide" x="109.961" y="216.809">G</text>
      <text class="nucleotide" x="109.569" y="201.814">A</text>
      <text class="nucleotide" x="109.176" y="186.819">U</text>
      <text class="nucleotide" x="116.578" y="173.894">C</text>
      <text class="nucleotide" x="108.482" y="160.301">G</text>
      <text class="nucleotide" x="108.089" y="145.306">G</text>
      <text class="nucleotide" x="107.696" y="130.311">A</text>
      <text class="nucleotide" x="107.500" y="115.312">G</text>
      <text class="nucleotide" x="114.324" y="103.109">A</text>
      <text class="nucleotide" x="107.500" y="90.905">C</text>
      <text class="nucleotide" x="107.500" y="75.905">G</text>
      <text class="nucleotide" x="107.500" y="60.905">U</text>
      <text class="nucleotide" x="115.237" y="47.105">C</text>
      <text class="nucleotide" x="107.500" y="34.378">C</text>
      <text class="nucleotide" x="107.500" y="19.378">U</text>
      <text class="nucleotide" x="107.500" y="4.378">U</text>
      <text class="nucleotide" x="118.395" y="-6.755">G</text>
      <text class="nucleotide" x="118.181" y="-21.967">G</text>
      <text class="nucleotide" x="107.500" y="-32.285">A</text>
      <text class="nucleotide" x="107.500" y="-47.285">A</text>
      <text class="nucleotide" x="107.500" y="-62.285">U</text>
      <text class="nucleotide" x="121.180" y="-68.964">C</text>
      <text class="nucleotide" x="130.566" y="-80.872">U</text>
      <text class="nucleotide" x="133.838" y="-95.613">C</text>
      <text class="nucleotide" x="130.399" y="-110.253">A</text>
      <text class="nucleotide" x="120.983" y="-121.900">A</text>
      <text class="nucleotide" x="107.500" y="-128.278">G</text>
      <text class="nucleotide" x="107.500" y="-143.278">U</text>
      <text class="nucleotide" x="107.696" y="-158.277">G</text>
      <text class="nucleotide" x="108.089" y="-173.271">G</text>
      <text class="nucleotide" x="108.482" y="-188.266">C</text>
      <text class="nucleotide" x="108.874" y="-203.261">G</text>
      <text class="nucleotide" x="109.267" y="-218.256">U</text>
      <text class="nucleotide" x="109.660" y="-233.251">A</text>
      <text class="nucleotide" x="110.052" y="-248.246">C</text>
      <text class="nucleotide" x="110.445" y="-263.241">G</text>
      <text class="nucleotide" x="110.838" y="-278.235">C</text>
      <text class="nucleotide" x="113.532" y="-297.429">G</text>
    </g>
  </g>
</svg>
