<svg xmlns="http://www.w3.org/2000/svg" xmlns:xlink="http://www.w3.org/1999/xlink" width="449" zoomAndPan="magnify" viewBox="0 0 336.75 79.499998" height="106" preserveAspectRatio="xMidYMid meet" version="1.2"><defs><clipPath id="4291ec9c0f"><path d="M 0.929688 0 L 335.574219 0 L 335.574219 79.003906 L 0.929688 79.003906 Z M 0.929688 0 "/></clipPath><clipPath id="bfaba53525"><path d="M 17 0 L 96 0 L 96 78.257812 L 17 78.257812 Z M 17 0 "/></clipPath><clipPath id="2146c2ea23"><path d="M 47 25 L 63 25 L 63 56 L 47 56 Z M 47 25 "/></clipPath><clipPath id="07e73ad24a"><path d="M 23.027344 35.1875 L 52.539062 5.675781 L 82.050781 35.1875 L 52.539062 64.699219 Z M 23.027344 35.1875 "/></clipPath><clipPath id="cd0c6e9017"><path d="M 23.027344 35.1875 L 52.539062 5.675781 L 82.050781 35.1875 L 52.539062 64.699219 Z M 23.027344 35.1875 "/></clipPath><clipPath id="fb97754415"><path d="M 23.027344 35.1875 L 52.539062 5.675781 L 82.050781 35.1875 L 52.539062 64.699219 Z M 23.027344 35.1875 "/></clipPath><clipPath id="9d90464388"><path d="M 47 26 L 61 26 L 61 56 L 47 56 Z M 47 26 "/></clipPath><clipPath id="0c763775b8"><path d="M 23.027344 35.1875 L 52.539062 5.675781 L 82.050781 35.1875 L 52.539062 64.699219 Z M 23.027344 35.1875 "/></clipPath><clipPath id="7af6fefa14"><path d="M 23.027344 35.1875 L 52.539062 5.675781 L 82.050781 35.1875 L 52.539062 64.699219 Z M 23.027344 35.1875 "/></clipPath><clipPath id="7df857461f"><path d="M 23.027344 35.1875 L 52.539062 5.675781 L 82.050781 35.1875 L 52.539062 64.699219 Z M 23.027344 35.1875 "/></clipPath><clipPath id="5795fe1d2d"><path d="M 60 38 L 74 38 L 74 44 L 60 44 Z M 60 38 "/></clipPath><clipPath id="f418e2b20e"><path d="M 23.027344 35.1875 L 52.539062 5.675781 L 82.050781 35.1875 L 52.539062 64.699219 Z M 23.027344 35.1875 "/></clipPath><clipPath id="aff5ccb96b"><path d="M 23.027344 35.1875 L 52.539062 5.675781 L 82.050781 35.1875 L 52.539062 64.699219 Z M 23.027344 35.1875 "/></clipPath><clipPath id="56e2ee1cf7"><path d="M 23.027344 35.1875 L 52.539062 5.675781 L 82.050781 35.1875 L 52.539062 64.699219 Z M 23.027344 35.1875 "/></clipPath><clipPath id="75dea1c2ec"><path d="M 61 39 L 74 39 L 74 44 L 61 44 Z M 61 39 "/></clipPath><clipPath id="98e9128b12"><path d="M 23.027344 35.1875 L 52.539062 5.675781 L 82.050781 35.1875 L 52.539062 64.699219 Z M 23.027344 35.1875 "/></clipPath><clipPath id="85c9e5e78e"><path d="M 23.027344 35.1875 L 52.539062 5.675781 L 82.050781 35.1875 L 52.539062 64.699219 Z M 23.027344 35.1875 "/></clipPath><clipPath id="2eaacccd5e"><path d="M 23.027344 35.1875 L 52.539062 5.675781 L 82.050781 35.1875 L 52.539062 64.699219 Z M 23.027344 35.1875 "/></clipPath><clipPath id="cbc9a0a302"><path d="M 31 26 L 46 26 L 46 33 L 31 33 Z M 31 26 "/></clipPath><clipPath id="559299c1bd"><path d="M 23.027344 35.1875 L 52.539062 5.675781 L 82.050781 35.1875 L 52.539062 64.699219 Z M 23.027344 35.1875 "/></clipPath><clipPath id="41c5dc054b"><path d="M 23.027344 35.1875 L 52.539062 5.675781 L 82.050781 35.1875 L 52.539062 64.699219 Z M 23.027344 35.1875 "/></clipPath><clipPath id="d574aaa43d"><path d="M 23.027344 35.1875 L 52.539062 5.675781 L 82.050781 35.1875 L 52.539062 64.699219 Z M 23.027344 35.1875 "/></clipPath><clipPath id="dc431fdf7e"><path d="M 32 26 L 46 26 L 46 31 L 32 31 Z M 32 26 "/></clipPath><clipPath id="df3ae1197f"><path d="M 23.027344 35.1875 L 52.539062 5.675781 L 82.050781 35.1875 L 52.539062 64.699219 Z M 23.027344 35.1875 "/></clipPath><clipPath id="83a63e7122"><path d="M 23.027344 35.1875 L 52.539062 5.675781 L 82.050781 35.1875 L 52.539062 64.699219 Z M 23.027344 35.1875 "/></clipPath><clipPath id="96b0dc920a"><path d="M 23.027344 35.1875 L 52.539062 5.675781 L 82.050781 35.1875 L 52.539062 64.699219 Z M 23.027344 35.1875 "/></clipPath><clipPath id="b57b97c5bb"><path d="M 42 14 L 58 14 L 58 45 L 42 45 Z M 42 14 "/></clipPath><clipPath id="e0d62e6816"><path d="M 23.027344 35.1875 L 52.539062 5.675781 L 82.050781 35.1875 L 52.539062 64.699219 Z M 23.027344 35.1875 "/></clipPath><clipPath id="c7b3335beb"><path d="M 23.027344 35.1875 L 52.539062 5.675781 L 82.050781 35.1875 L 52.539062 64.699219 Z M 23.027344 35.1875 "/></clipPath><clipPath id="99e902e1e6"><path d="M 23.027344 35.1875 L 52.539062 5.675781 L 82.050781 35.1875 L 52.539062 64.699219 Z M 23.027344 35.1875 "/></clipPath><clipPath id="05d4edf17d"><path d="M 47 26 L 50 26 L 50 31 L 47 31 Z M 47 26 "/></clipPath><clipPath id="f0f4821d29"><path d="M 23.027344 35.1875 L 52.539062 5.675781 L 82.050781 35.1875 L 52.539062 64.699219 Z M 23.027344 35.1875 "/></clipPath><clipPath id="0d697c982b"><path d="M 23.027344 35.1875 L 52.539062 5.675781 L 82.050781 35.1875 L 52.539062 64.699219 Z M 23.027344 35.1875 "/></clipPath><clipPath id="70fae9c014"><path d="M 23.027344 35.1875 L 52.539062 5.675781 L 82.050781 35.1875 L 52.539062 64.699219 Z M 23.027344 35.1875 "/></clipPath><clipPath id="d73d41a5bc"><path d="M 44 14 L 58 14 L 58 45 L 44 45 Z M 44 14 "/></clipPath><clipPath id="34b5838735"><path d="M 23.027344 35.1875 L 52.539062 5.675781 L 82.050781 35.1875 L 52.539062 64.699219 Z M 23.027344 35.1875 "/></clipPath><clipPath id="f7d60f9c58"><path d="M 23.027344 35.1875 L 52.539062 5.675781 L 82.050781 35.1875 L 52.539062 64.699219 Z M 23.027344 35.1875 "/></clipPath><clipPath id="8ea366f8b4"><path d="M 23.027344 35.1875 L 52.539062 5.675781 L 82.050781 35.1875 L 52.539062 64.699219 Z M 23.027344 35.1875 "/></clipPath><clipPath id="54d3dbcd13"><path d="M 60 38 L 63 38 L 63 43 L 60 43 Z M 60 38 "/></clipPath><clipPath id="2610421233"><path d="M 23.027344 35.1875 L 52.539062 5.675781 L 82.050781 35.1875 L 52.539062 64.699219 Z M 23.027344 35.1875 "/></clipPath><clipPath id="1f356be17b"><path d="M 23.027344 35.1875 L 52.539062 5.675781 L 82.050781 35.1875 L 52.539062 64.699219 Z M 23.027344 35.1875 "/></clipPath><clipPath id="7a73cf354d"><path d="M 23.027344 35.1875 L 52.539062 5.675781 L 82.050781 35.1875 L 52.539062 64.699219 Z M 23.027344 35.1875 "/></clipPath><clipPath id="e9a995f71e"><path d="M 30 13 L 75 13 L 75 57 L 30 57 Z M 30 13 "/></clipPath><clipPath id="8dd7672653"><path d="M 23.027344 35.1875 L 52.539062 5.675781 L 82.050781 35.1875 L 52.539062 64.699219 Z M 23.027344 35.1875 "/></clipPath><clipPath id="f20fb6bec0"><path d="M 23.027344 35.1875 L 52.539062 5.675781 L 82.050781 35.1875 L 52.539062 64.699219 Z M 23.027344 35.1875 "/></clipPath><clipPath id="c9aeaf23b4"><path d="M 23.027344 35.1875 L 52.539062 5.675781 L 82.050781 35.1875 L 52.539062 64.699219 Z M 23.027344 35.1875 "/></clipPath></defs><g id="af17def65c"><g clip-rule="nonzero" clip-path="url(#4291ec9c0f)"><path style=" stroke:none;fill-rule:nonzero;fill:#ffffff;fill-opacity:1;" d="M 0.929688 0 L 335.574219 0 L 335.574219 79.003906 L 0.929688 79.003906 Z M 0.929688 0 "/></g><g clip-rule="nonzero" clip-path="url(#bfaba53525)"><path style=" stroke:none;fill-rule:nonzero;fill:#000000;fill-opacity:1;" d="M 95.207031 70.414062 C 95.160156 69.605469 94.757812 68.832031 94.117188 68.304688 L 76.132812 53.40625 C 80.640625 47.621094 83.078125 40.554688 83.078125 33.09375 C 83.078125 24.261719 79.652344 15.949219 73.421875 9.699219 C 67.191406 3.453125 58.902344 0.015625 50.09375 0.015625 C 41.289062 0.015625 32.996094 3.453125 26.765625 9.699219 C 20.535156 15.949219 17.109375 24.261719 17.109375 33.09375 C 17.109375 41.925781 20.535156 50.238281 26.765625 56.484375 C 32.996094 62.734375 41.289062 66.171875 50.09375 66.171875 C 57.257812 66.171875 64.0625 63.898438 69.71875 59.691406 L 85.597656 77.25 C 86.160156 77.871094 86.941406 78.230469 87.746094 78.242188 L 87.78125 78.242188 C 88.503906 78.242188 89.160156 77.964844 89.644531 77.457031 L 94.519531 72.351562 C 95 71.84375 95.253906 71.152344 95.207031 70.414062 Z M 21.121094 33.09375 C 21.121094 17.078125 34.113281 4.039062 50.09375 4.039062 C 66.074219 4.039062 79.066406 17.066406 79.066406 33.09375 C 79.066406 49.105469 66.074219 62.148438 50.09375 62.148438 C 34.113281 62.148438 21.121094 49.105469 21.121094 33.09375 Z M 21.121094 33.09375 "/></g><path style=" stroke:none;fill-rule:nonzero;fill:#000000;fill-opacity:1;" d="M 25.707031 36.910156 C 30.789062 10.601562 53.1875 7.984375 53.1875 7.984375 C 22.925781 9.378906 25.707031 36.910156 25.707031 36.910156 Z M 25.707031 36.910156 "/><g clip-rule="nonzero" clip-path="url(#2146c2ea23)"><g clip-rule="nonzero" clip-path="url(#07e73ad24a)"><g clip-rule="nonzero" clip-path="url(#cd0c6e9017)"><g clip-rule="nonzero" clip-path="url(#fb97754415)"><path style=" stroke:none;fill-rule:nonzero;fill:#f26674;fill-opacity:1;" d="M 59.917969 27.808594 C 63.742188 31.632812 61.988281 34.910156 58.914062 47.183594 C 58.652344 48.230469 58.667969 49.273438 58.957031 50.3125 C 59.242188 51.351562 59.769531 52.253906 60.53125 53.019531 C 60.695312 53.179688 60.820312 53.367188 60.910156 53.582031 C 60.996094 53.792969 61.042969 54.015625 61.042969 54.246094 C 61.042969 54.476562 60.996094 54.699219 60.910156 54.914062 C 60.820312 55.125 60.695312 55.3125 60.53125 55.476562 C 60.371094 55.640625 60.179688 55.765625 59.96875 55.855469 C 59.753906 55.941406 59.535156 55.988281 59.300781 55.988281 C 59.070312 55.988281 58.851562 55.941406 58.636719 55.855469 C 58.425781 55.765625 58.234375 55.640625 58.074219 55.476562 C 53.769531 51.171875 55.667969 46.640625 57.253906 40.308594 C 58.449219 35.351562 59.867188 32.679688 57.457031 30.269531 C 55.046875 27.859375 52.132812 29.296875 47.742188 30.390625 L 48.648438 26.78125 C 52.121094 25.914062 56.265625 24.15625 59.917969 27.808594 Z M 59.917969 27.808594 "/></g></g></g></g><g clip-rule="nonzero" clip-path="url(#9d90464388)"><g clip-rule="nonzero" clip-path="url(#0c763775b8)"><g clip-rule="nonzero" clip-path="url(#7af6fefa14)"><g clip-rule="nonzero" clip-path="url(#7df857461f)"><path style=" stroke:none;fill-rule:nonzero;fill:#db5669;fill-opacity:1;" d="M 58.6875 29.039062 C 62.511719 32.863281 60.761719 36.140625 57.6875 48.414062 C 57.425781 49.460938 57.4375 50.503906 57.726562 51.542969 C 58.015625 52.582031 58.539062 53.484375 59.300781 54.246094 C 59.523438 54.46875 59.671875 54.726562 59.75 55.027344 C 59.832031 55.328125 59.832031 55.625 59.75 55.925781 C 57.703125 56.4375 54.414062 51.660156 55.644531 46.726562 C 58.914062 33.617188 59.082031 33.847656 58.636719 32.296875 C 58.558594 32.011719 58.453125 31.734375 58.320312 31.46875 C 58.183594 31.203125 58.027344 30.953125 57.847656 30.71875 C 57.664062 30.484375 57.460938 30.265625 57.238281 30.070312 C 57.015625 29.875 56.777344 29.703125 56.519531 29.550781 C 56.261719 29.402344 55.992188 29.277344 55.714844 29.179688 C 55.433594 29.082031 55.144531 29.011719 54.851562 28.96875 C 54.558594 28.925781 54.261719 28.914062 53.964844 28.929688 C 53.667969 28.941406 53.375 28.984375 53.085938 29.058594 L 47.742188 30.390625 L 48.402344 27.765625 C 51.179688 27.078125 55.140625 25.492188 58.6875 29.039062 Z M 58.6875 29.039062 "/></g></g></g></g><g clip-rule="nonzero" clip-path="url(#5795fe1d2d)"><g clip-rule="nonzero" clip-path="url(#f418e2b20e)"><g clip-rule="nonzero" clip-path="url(#aff5ccb96b)"><g clip-rule="nonzero" clip-path="url(#56e2ee1cf7)"><path style=" stroke:none;fill-rule:nonzero;fill:#6fabe6;fill-opacity:1;" d="M 72.828125 40.71875 C 72.992188 40.882812 73.117188 41.070312 73.207031 41.285156 C 73.292969 41.496094 73.339844 41.71875 73.339844 41.949219 C 73.339844 42.179688 73.292969 42.402344 73.207031 42.617188 C 73.117188 42.828125 72.992188 43.015625 72.828125 43.179688 C 72.667969 43.34375 72.476562 43.46875 72.265625 43.558594 C 72.050781 43.644531 71.832031 43.6875 71.601562 43.6875 C 71.367188 43.6875 71.148438 43.644531 70.933594 43.558594 C 70.722656 43.46875 70.53125 43.34375 70.371094 43.179688 C 67.382812 40.191406 64.160156 41.65625 60.039062 42.6875 L 60.945312 39.078125 C 64.460938 38.195312 68.765625 36.65625 72.828125 40.71875 Z M 72.828125 40.71875 "/><path style=" stroke:none;fill-rule:nonzero;fill:#82bcf4;fill-opacity:1;" d="M 72.828125 40.71875 C 72.992188 40.882812 73.117188 41.070312 73.207031 41.285156 C 73.292969 41.496094 73.339844 41.71875 73.339844 41.949219 C 73.339844 42.179688 73.292969 42.402344 73.207031 42.617188 C 73.117188 42.828125 72.992188 43.015625 72.828125 43.179688 C 72.667969 43.34375 72.476562 43.46875 72.265625 43.558594 C 72.050781 43.644531 71.832031 43.6875 71.601562 43.6875 C 71.367188 43.6875 71.148438 43.644531 70.933594 43.558594 C 70.722656 43.46875 70.53125 43.34375 70.371094 43.179688 C 67.398438 40.210938 64.191406 41.648438 60.039062 42.6875 L 60.945312 39.078125 C 64.46875 38.1875 68.757812 36.648438 72.828125 40.71875 Z M 72.828125 40.71875 "/></g></g></g></g><g clip-rule="nonzero" clip-path="url(#75dea1c2ec)"><g clip-rule="nonzero" clip-path="url(#98e9128b12)"><g clip-rule="nonzero" clip-path="url(#85c9e5e78e)"><g clip-rule="nonzero" clip-path="url(#2eaacccd5e)"><path style=" stroke:none;fill-rule:nonzero;fill:#6fabe6;fill-opacity:1;" d="M 73.136719 41.136719 C 73.277344 41.390625 73.339844 41.660156 73.332031 41.949219 C 73.332031 42.300781 73.234375 42.621094 73.039062 42.914062 C 72.84375 43.203125 72.585938 43.417969 72.261719 43.550781 C 71.9375 43.6875 71.601562 43.71875 71.257812 43.652344 C 70.914062 43.585938 70.617188 43.425781 70.371094 43.179688 C 69.605469 42.417969 68.703125 41.894531 67.664062 41.605469 C 66.625 41.316406 65.582031 41.300781 64.535156 41.5625 C 61.429688 42.34375 61.824219 42.308594 61.886719 42.074219 L 62.339844 40.265625 C 65.652344 39.433594 69.234375 38.167969 73.136719 41.136719 Z M 73.136719 41.136719 "/></g></g></g></g><g clip-rule="nonzero" clip-path="url(#cbc9a0a302)"><g clip-rule="nonzero" clip-path="url(#559299c1bd)"><g clip-rule="nonzero" clip-path="url(#41c5dc054b)"><g clip-rule="nonzero" clip-path="url(#d574aaa43d)"><path style=" stroke:none;fill-rule:nonzero;fill:#db5669;fill-opacity:1;" d="M 45.039062 27.6875 L 44.132812 31.292969 C 40.96875 32.089844 39.125 32.800781 36.277344 32.046875 C 33.429688 31.289062 30.257812 28.730469 32.410156 27.035156 C 32.578125 26.90625 32.761719 26.808594 32.964844 26.746094 C 33.167969 26.6875 33.378906 26.664062 33.589844 26.679688 C 33.800781 26.691406 34.003906 26.746094 34.195312 26.832031 C 34.390625 26.921875 34.558594 27.042969 34.707031 27.195312 C 37.695312 30.183594 40.917969 28.71875 45.039062 27.6875 Z M 45.039062 27.6875 "/></g></g></g></g><g clip-rule="nonzero" clip-path="url(#dc431fdf7e)"><g clip-rule="nonzero" clip-path="url(#df3ae1197f)"><g clip-rule="nonzero" clip-path="url(#83a63e7122)"><g clip-rule="nonzero" clip-path="url(#96b0dc920a)"><path style=" stroke:none;fill-rule:nonzero;fill:#f26674;fill-opacity:1;" d="M 45.039062 27.6875 L 44.582031 29.492188 L 41.625 30.226562 C 36.984375 31.398438 32.796875 28.480469 32.410156 27.035156 C 32.578125 26.90625 32.761719 26.808594 32.964844 26.746094 C 33.167969 26.6875 33.378906 26.664062 33.589844 26.679688 C 33.800781 26.691406 34.003906 26.746094 34.195312 26.832031 C 34.390625 26.921875 34.558594 27.042969 34.707031 27.195312 C 37.695312 30.183594 40.917969 28.71875 45.039062 27.6875 Z M 45.039062 27.6875 "/></g></g></g></g><g clip-rule="nonzero" clip-path="url(#b57b97c5bb)"><g clip-rule="nonzero" clip-path="url(#e0d62e6816)"><g clip-rule="nonzero" clip-path="url(#c7b3335beb)"><g clip-rule="nonzero" clip-path="url(#99e902e1e6)"><path style=" stroke:none;fill-rule:nonzero;fill:#6fabe6;fill-opacity:1;" d="M 47.003906 14.898438 C 47.570312 15.457031 48.050781 16.082031 48.453125 16.769531 C 48.851562 17.457031 49.160156 18.183594 49.375 18.953125 C 49.585938 19.71875 49.699219 20.5 49.707031 21.292969 C 49.71875 22.089844 49.628906 22.875 49.433594 23.644531 C 46.367188 35.875 45.203125 37.6875 47.621094 40.105469 C 48.191406 40.679688 48.867188 41.070312 49.648438 41.289062 C 50.425781 41.503906 51.207031 41.511719 51.992188 41.316406 L 57.335938 39.984375 L 56.472656 43.425781 C 56.414062 43.660156 56.875 43.480469 52.453125 44.582031 C 51.972656 44.703125 51.484375 44.777344 50.988281 44.800781 C 50.492188 44.828125 50 44.804688 49.507812 44.738281 C 49.019531 44.667969 48.539062 44.550781 48.070312 44.386719 C 47.601562 44.226562 47.152344 44.019531 46.722656 43.769531 C 46.296875 43.519531 45.894531 43.230469 45.523438 42.902344 C 45.148438 42.574219 44.8125 42.214844 44.507812 41.820312 C 44.207031 41.429688 43.945312 41.011719 43.722656 40.566406 C 43.503906 40.121094 43.324219 39.660156 43.195312 39.183594 C 42.5 36.679688 42.886719 36.292969 46.164062 23.191406 C 46.460938 21.980469 46.402344 20.785156 45.980469 19.613281 C 45.246094 17.554688 44.023438 17.398438 44.042969 16.125 C 44.042969 15.777344 44.140625 15.453125 44.335938 15.164062 C 44.53125 14.871094 44.789062 14.660156 45.113281 14.527344 C 45.4375 14.390625 45.773438 14.359375 46.117188 14.425781 C 46.460938 14.492188 46.757812 14.648438 47.003906 14.898438 Z M 47.003906 14.898438 "/></g></g></g></g><g clip-rule="nonzero" clip-path="url(#05d4edf17d)"><g clip-rule="nonzero" clip-path="url(#f0f4821d29)"><g clip-rule="nonzero" clip-path="url(#0d697c982b)"><g clip-rule="nonzero" clip-path="url(#70fae9c014)"><path style=" stroke:none;fill-rule:nonzero;fill:#db5669;fill-opacity:1;" d="M 49.957031 26.457031 L 49.054688 30.066406 L 47.742188 30.390625 L 48.648438 26.78125 Z M 49.957031 26.457031 "/></g></g></g></g><g clip-rule="nonzero" clip-path="url(#d73d41a5bc)"><g clip-rule="nonzero" clip-path="url(#34b5838735)"><g clip-rule="nonzero" clip-path="url(#f7d60f9c58)"><g clip-rule="nonzero" clip-path="url(#8ea366f8b4)"><path style=" stroke:none;fill-rule:nonzero;fill:#82bcf4;fill-opacity:1;" d="M 49.433594 23.644531 C 46.367188 35.875 45.203125 37.6875 47.621094 40.105469 C 48.191406 40.679688 48.867188 41.070312 49.648438 41.289062 C 50.425781 41.503906 51.207031 41.511719 51.992188 41.316406 L 57.335938 39.984375 L 56.472656 43.425781 C 53.890625 44.066406 50.34375 45.289062 47.003906 41.949219 C 46.539062 41.480469 46.136719 40.960938 45.804688 40.386719 C 45.472656 39.8125 45.214844 39.207031 45.039062 38.570312 C 44.863281 37.929688 44.769531 37.28125 44.761719 36.617188 C 44.753906 35.953125 44.828125 35.300781 44.988281 34.65625 C 47.945312 22.773438 49.59375 19.945312 46.390625 16.742188 C 46.238281 16.59375 46.121094 16.421875 46.03125 16.230469 C 45.941406 16.035156 45.890625 15.832031 45.875 15.621094 C 45.859375 15.410156 45.882812 15.203125 45.945312 15 C 46.007812 14.796875 46.101562 14.609375 46.230469 14.441406 C 47.835938 14.867188 50.554688 19.183594 49.433594 23.644531 Z M 49.433594 23.644531 "/></g></g></g></g><g clip-rule="nonzero" clip-path="url(#54d3dbcd13)"><g clip-rule="nonzero" clip-path="url(#2610421233)"><g clip-rule="nonzero" clip-path="url(#1f356be17b)"><g clip-rule="nonzero" clip-path="url(#7a73cf354d)"><path style=" stroke:none;fill-rule:nonzero;fill:#6fabe6;fill-opacity:1;" d="M 62.75 38.625 C 61.738281 42.664062 61.910156 42.222656 61.683594 42.277344 L 60.039062 42.6875 L 60.945312 39.078125 Z M 62.75 38.625 "/></g></g></g></g><g clip-rule="nonzero" clip-path="url(#e9a995f71e)"><g clip-rule="nonzero" clip-path="url(#8dd7672653)"><g clip-rule="nonzero" clip-path="url(#f20fb6bec0)"><g clip-rule="nonzero" clip-path="url(#c9aeaf23b4)"><path style=" stroke:none;fill-rule:nonzero;fill:#231f20;fill-opacity:1;" d="M 60.53125 27.195312 C 56.84375 23.503906 52.828125 24.851562 49.839844 25.589844 L 50.308594 23.890625 C 50.519531 23.042969 50.617188 22.183594 50.605469 21.308594 C 50.59375 20.433594 50.46875 19.574219 50.234375 18.730469 C 50 17.890625 49.660156 17.089844 49.214844 16.335938 C 48.773438 15.582031 48.242188 14.898438 47.621094 14.28125 C 47.25 13.910156 46.804688 13.671875 46.289062 13.570312 C 45.773438 13.46875 45.269531 13.515625 44.785156 13.714844 C 44.296875 13.917969 43.90625 14.234375 43.613281 14.671875 C 43.320312 15.105469 43.171875 15.589844 43.167969 16.113281 C 43.144531 17.972656 44.644531 17.933594 45.273438 20.320312 L 41.472656 24.121094 C 41.300781 24.289062 41.21875 24.496094 41.21875 24.734375 C 41.21875 24.972656 41.300781 25.179688 41.472656 25.347656 C 41.640625 25.519531 41.847656 25.605469 42.085938 25.605469 C 42.328125 25.605469 42.53125 25.519531 42.703125 25.347656 C 45.707031 22.34375 45.4375 22.503906 45.320312 22.976562 L 44.324219 26.972656 C 40.703125 27.875 38.484375 28.902344 35.992188 27.136719 L 40.242188 22.890625 C 40.410156 22.71875 40.496094 22.515625 40.496094 22.273438 C 40.496094 22.035156 40.410156 21.828125 40.242188 21.660156 C 40.074219 21.492188 39.867188 21.40625 39.628906 21.40625 C 39.386719 21.40625 39.183594 21.492188 39.011719 21.660156 C 33.238281 27.433594 35.324219 25.792969 33.492188 25.816406 C 32.960938 25.8125 32.480469 25.960938 32.039062 26.25 C 31.597656 26.542969 31.277344 26.933594 31.074219 27.421875 C 30.871094 27.910156 30.820312 28.410156 30.921875 28.929688 C 31.023438 29.449219 31.261719 29.894531 31.632812 30.269531 C 32.25 30.890625 32.933594 31.421875 33.6875 31.863281 C 34.445312 32.308594 35.242188 32.644531 36.085938 32.882812 C 36.925781 33.117188 37.785156 33.242188 38.660156 33.253906 C 39.535156 33.265625 40.394531 33.167969 41.246094 32.953125 L 42.941406 32.488281 C 42.226562 35.339844 40.765625 39.398438 44.546875 43.179688 C 48.234375 46.867188 52.226562 45.535156 55.238281 44.785156 L 54.765625 46.488281 C 53.441406 52.078125 57.863281 59.375 61.148438 56.09375 C 61.390625 55.847656 61.582031 55.566406 61.710938 55.246094 C 61.84375 54.925781 61.910156 54.59375 61.910156 54.246094 C 61.910156 53.902344 61.84375 53.570312 61.710938 53.25 C 61.582031 52.929688 61.390625 52.648438 61.148438 52.402344 C 60.496094 51.734375 60.050781 50.953125 59.808594 50.054688 C 59.847656 50.023438 59.886719 49.984375 59.917969 49.941406 C 63.605469 46.253906 64.425781 45.84375 63.605469 45.023438 C 63.4375 44.855469 63.230469 44.769531 62.992188 44.769531 C 62.75 44.769531 62.546875 44.855469 62.375 45.023438 L 59.703125 47.699219 C 59.789062 47.246094 59.53125 48.300781 60.753906 43.402344 C 64.375 42.496094 66.59375 41.46875 69.085938 43.234375 L 64.835938 47.484375 C 64.667969 47.652344 64.582031 47.859375 64.582031 48.097656 C 64.582031 48.339844 64.667969 48.542969 64.835938 48.714844 C 65.007812 48.882812 65.210938 48.96875 65.449219 48.96875 C 65.691406 48.96875 65.894531 48.882812 66.066406 48.714844 L 70.480469 44.300781 C 70.757812 44.429688 71.046875 44.507812 71.351562 44.535156 C 71.65625 44.5625 71.957031 44.535156 72.253906 44.457031 C 72.550781 44.378906 72.824219 44.253906 73.074219 44.078125 C 73.324219 43.902344 73.539062 43.691406 73.714844 43.441406 C 73.890625 43.191406 74.019531 42.917969 74.101562 42.625 C 74.183594 42.328125 74.210938 42.027344 74.183594 41.722656 C 74.160156 41.417969 74.085938 41.128906 73.957031 40.851562 C 73.828125 40.570312 73.660156 40.324219 73.445312 40.105469 C 72.828125 39.488281 72.140625 38.957031 71.386719 38.515625 C 70.632812 38.074219 69.832031 37.734375 68.992188 37.5 C 68.148438 37.265625 67.292969 37.140625 66.417969 37.125 C 65.542969 37.113281 64.683594 37.210938 63.835938 37.417969 L 62.136719 37.886719 C 62.851562 35.03125 64.308594 30.96875 60.53125 27.195312 Z M 32.863281 29.039062 C 32.695312 28.867188 32.609375 28.664062 32.609375 28.421875 C 32.609375 28.183594 32.695312 27.980469 32.863281 27.808594 C 33.035156 27.640625 33.238281 27.554688 33.480469 27.554688 C 33.71875 27.554688 33.925781 27.640625 34.09375 27.808594 C 37.210938 30.925781 40.550781 29.703125 43.84375 28.878906 L 43.394531 30.558594 C 40.382812 31.355469 36.554688 32.726562 32.863281 29.039062 Z M 52.238281 43.738281 C 51.8125 43.847656 51.378906 43.914062 50.9375 43.9375 C 50.5 43.960938 50.0625 43.941406 49.625 43.878906 C 49.191406 43.816406 48.765625 43.714844 48.351562 43.570312 C 47.933594 43.425781 47.535156 43.246094 47.15625 43.023438 C 46.773438 42.800781 46.417969 42.546875 46.089844 42.257812 C 45.757812 41.96875 45.457031 41.648438 45.1875 41.300781 C 44.921875 40.953125 44.6875 40.582031 44.488281 40.1875 C 44.292969 39.792969 44.136719 39.386719 44.015625 38.960938 C 43.394531 36.71875 43.722656 36.527344 46.992188 23.417969 C 47.140625 22.832031 47.210938 22.234375 47.203125 21.625 C 47.199219 21.019531 47.113281 20.425781 46.953125 19.839844 C 46.792969 19.253906 46.5625 18.699219 46.257812 18.175781 C 45.953125 17.648438 45.589844 17.171875 45.160156 16.742188 C 44.992188 16.570312 44.90625 16.367188 44.90625 16.125 C 44.90625 15.886719 44.992188 15.679688 45.160156 15.511719 C 45.332031 15.34375 45.535156 15.257812 45.777344 15.257812 C 46.015625 15.257812 46.222656 15.34375 46.390625 15.511719 C 46.898438 16.019531 47.335938 16.585938 47.699219 17.207031 C 48.0625 17.828125 48.339844 18.488281 48.535156 19.179688 C 48.726562 19.875 48.828125 20.582031 48.835938 21.300781 C 48.847656 22.023438 48.765625 22.730469 48.59375 23.429688 L 45.566406 35.519531 C 45.335938 36.453125 45.347656 37.382812 45.605469 38.308594 C 45.859375 39.234375 46.328125 40.039062 47.003906 40.71875 C 49.648438 43.363281 52.484375 42.089844 56.136719 41.183594 L 55.695312 42.855469 Z M 51.925781 37.03125 L 57.382812 31.570312 C 58.421875 33.261719 57.859375 34.28125 56.617188 39.261719 L 53.941406 39.933594 L 56.226562 37.644531 C 56.398438 37.476562 56.484375 37.273438 56.484375 37.03125 C 56.484375 36.792969 56.398438 36.585938 56.226562 36.417969 C 56.058594 36.246094 55.855469 36.160156 55.613281 36.160156 C 55.375 36.160156 55.167969 36.246094 55 36.417969 L 50.828125 40.585938 C 50.34375 40.578125 49.875 40.484375 49.425781 40.292969 C 48.976562 40.105469 48.578125 39.835938 48.234375 39.492188 C 47.886719 39.148438 47.621094 38.75 47.433594 38.300781 C 47.242188 37.851562 47.144531 37.382812 47.140625 36.894531 L 51.308594 32.726562 C 51.480469 32.558594 51.5625 32.351562 51.5625 32.113281 C 51.5625 31.871094 51.480469 31.667969 51.308594 31.496094 C 51.140625 31.328125 50.933594 31.242188 50.695312 31.242188 C 50.453125 31.242188 50.25 31.328125 50.078125 31.496094 L 47.792969 33.785156 L 48.460938 31.109375 C 53.136719 29.941406 54.390625 29.265625 56.15625 30.34375 L 50.695312 35.800781 C 50.523438 35.972656 50.441406 36.175781 50.441406 36.417969 C 50.441406 36.65625 50.523438 36.863281 50.695312 37.03125 C 50.863281 37.203125 51.070312 37.285156 51.308594 37.285156 C 51.550781 37.285156 51.753906 37.203125 51.925781 37.03125 Z M 64.289062 39.140625 C 68.480469 38.09375 72.472656 40.792969 72.460938 41.960938 C 72.453125 42.34375 72.269531 42.601562 71.917969 42.746094 C 71.570312 42.890625 71.257812 42.828125 70.984375 42.566406 C 67.867188 39.449219 64.527344 40.671875 61.234375 41.496094 L 61.683594 39.816406 Z M 58.074219 46.96875 C 57.925781 47.554688 57.859375 48.152344 57.867188 48.757812 C 57.875 49.363281 57.960938 49.957031 58.121094 50.542969 C 58.28125 51.125 58.515625 51.679688 58.820312 52.203125 C 59.125 52.726562 59.488281 53.203125 59.917969 53.632812 C 60.085938 53.800781 60.171875 54.007812 60.171875 54.246094 C 60.171875 54.488281 60.085938 54.691406 59.917969 54.863281 C 59.746094 55.03125 59.542969 55.117188 59.300781 55.117188 C 59.0625 55.117188 58.859375 55.03125 58.6875 54.863281 C 58.179688 54.351562 57.746094 53.785156 57.382812 53.164062 C 57.023438 52.542969 56.746094 51.882812 56.550781 51.191406 C 56.359375 50.496094 56.257812 49.789062 56.246094 49.070312 C 56.234375 48.351562 56.316406 47.640625 56.488281 46.941406 L 59.542969 34.8125 C 59.765625 33.882812 59.746094 32.957031 59.484375 32.039062 C 59.222656 31.121094 58.753906 30.324219 58.074219 29.652344 C 55.429688 27.007812 52.574219 28.289062 48.972656 29.160156 L 49.414062 27.488281 L 52.890625 26.621094 C 53.171875 26.550781 53.460938 26.5 53.75 26.464844 C 54.042969 26.433594 54.332031 26.417969 54.625 26.421875 C 54.917969 26.425781 55.207031 26.449219 55.5 26.488281 C 55.789062 26.53125 56.074219 26.589844 56.355469 26.667969 C 56.636719 26.746094 56.914062 26.84375 57.183594 26.957031 C 57.449219 27.070312 57.710938 27.199219 57.964844 27.347656 C 58.21875 27.496094 58.460938 27.65625 58.691406 27.835938 C 58.921875 28.015625 59.140625 28.207031 59.347656 28.414062 C 59.554688 28.621094 59.746094 28.839844 59.925781 29.070312 C 60.105469 29.304688 60.269531 29.546875 60.414062 29.796875 C 60.5625 30.050781 60.691406 30.3125 60.808594 30.582031 C 60.921875 30.851562 61.015625 31.125 61.09375 31.40625 C 61.171875 31.691406 61.234375 31.976562 61.273438 32.265625 C 61.316406 32.554688 61.339844 32.84375 61.34375 33.136719 C 61.347656 33.429688 61.332031 33.722656 61.296875 34.011719 C 61.265625 34.300781 61.210938 34.589844 61.140625 34.875 Z M 58.074219 46.96875 "/></g></g></g></g><g style="fill:#000000;fill-opacity:1;"><g transform="translate(87.007401, 44.780023)"><path style="stroke:none" d="M 0.421875 -19.21875 L 0.421875 -19.90625 L 9 -19.90625 L 15.484375 -6.25 L 21.859375 -19.90625 L 30.1875 -19.90625 L 30.1875 -19.21875 C 29.332031 -19.21875 28.6875 -19.15625 28.25 -19.03125 C 27.820312 -18.914062 27.535156 -18.671875 27.390625 -18.296875 C 27.253906 -17.929688 27.1875 -17.363281 27.1875 -16.59375 L 27.1875 -3.3125 C 27.1875 -2.570312 27.253906 -2.007812 27.390625 -1.625 C 27.535156 -1.238281 27.820312 -0.984375 28.25 -0.859375 C 28.6875 -0.742188 29.332031 -0.6875 30.1875 -0.6875 L 30.1875 0 L 18.859375 0 L 18.859375 -0.6875 C 19.722656 -0.6875 20.367188 -0.742188 20.796875 -0.859375 C 21.222656 -0.984375 21.503906 -1.238281 21.640625 -1.625 C 21.785156 -2.007812 21.859375 -2.570312 21.859375 -3.3125 L 21.859375 -17.53125 L 13.40625 0 L 12.578125 0 L 4.125 -17.53125 L 4.125 -3.3125 C 4.125 -2.570312 4.191406 -2.007812 4.328125 -1.625 C 4.472656 -1.238281 4.757812 -0.984375 5.1875 -0.859375 C 5.613281 -0.742188 6.257812 -0.6875 7.125 -0.6875 L 7.125 0 L 0.421875 0 L 0.421875 -0.6875 C 1.285156 -0.6875 1.929688 -0.742188 2.359375 -0.859375 C 2.785156 -0.984375 3.066406 -1.238281 3.203125 -1.625 C 3.347656 -2.007812 3.421875 -2.570312 3.421875 -3.3125 L 3.421875 -16.59375 C 3.421875 -17.363281 3.347656 -17.929688 3.203125 -18.296875 C 3.066406 -18.671875 2.785156 -18.914062 2.359375 -19.03125 C 1.929688 -19.15625 1.285156 -19.21875 0.421875 -19.21875 Z M 0.421875 -19.21875 "/></g></g><g style="fill:#000000;fill-opacity:1;"><g transform="translate(117.617889, 44.780023)"><path style="stroke:none" d="M 0.421875 0 L 0.421875 -0.6875 C 1.285156 -0.6875 1.929688 -0.742188 2.359375 -0.859375 C 2.785156 -0.984375 3.066406 -1.238281 3.203125 -1.625 C 3.347656 -2.007812 3.421875 -2.570312 3.421875 -3.3125 L 3.421875 -16.59375 C 3.421875 -17.363281 3.347656 -17.929688 3.203125 -18.296875 C 3.066406 -18.671875 2.785156 -18.914062 2.359375 -19.03125 C 1.929688 -19.15625 1.285156 -19.21875 0.421875 -19.21875 L 0.421875 -19.90625 L 8.71875 -19.90625 L 18.828125 -6.4375 L 18.828125 -16.59375 C 18.828125 -17.363281 18.757812 -17.929688 18.625 -18.296875 C 18.5 -18.671875 18.25 -18.914062 17.875 -19.03125 C 17.507812 -19.15625 16.960938 -19.21875 16.234375 -19.21875 L 15.96875 -19.21875 L 15.96875 -19.90625 L 22.53125 -19.90625 L 22.53125 -19.21875 C 21.664062 -19.21875 21.015625 -19.15625 20.578125 -19.03125 C 20.148438 -18.914062 19.863281 -18.671875 19.71875 -18.296875 C 19.582031 -17.929688 19.515625 -17.363281 19.515625 -16.59375 L 19.515625 0 L 17 0 L 4.125 -17.171875 L 4.125 -3.3125 C 4.125 -2.570312 4.191406 -2.007812 4.328125 -1.625 C 4.472656 -1.238281 4.757812 -0.984375 5.1875 -0.859375 C 5.613281 -0.742188 6.257812 -0.6875 7.125 -0.6875 L 7.125 0 Z M 0.421875 0 "/></g></g><g style="fill:#000000;fill-opacity:1;"><g transform="translate(140.560721, 44.780023)"><path style="stroke:none" d="M 0.421875 -19.21875 L 0.421875 -19.90625 L 11.765625 -19.90625 L 11.765625 -19.21875 C 10.898438 -19.21875 10.25 -19.15625 9.8125 -19.03125 C 9.382812 -18.914062 9.097656 -18.671875 8.953125 -18.296875 C 8.816406 -17.929688 8.75 -17.363281 8.75 -16.59375 L 8.75 -3.3125 C 8.75 -2.570312 8.816406 -2.007812 8.953125 -1.625 C 9.097656 -1.238281 9.382812 -0.984375 9.8125 -0.859375 C 10.25 -0.742188 10.898438 -0.6875 11.765625 -0.6875 L 11.765625 0 L 0.421875 0 L 0.421875 -0.6875 C 1.285156 -0.6875 1.929688 -0.742188 2.359375 -0.859375 C 2.785156 -0.984375 3.066406 -1.238281 3.203125 -1.625 C 3.347656 -2.007812 3.421875 -2.570312 3.421875 -3.3125 L 3.421875 -16.59375 C 3.421875 -17.363281 3.347656 -17.929688 3.203125 -18.296875 C 3.066406 -18.671875 2.785156 -18.914062 2.359375 -19.03125 C 1.929688 -19.15625 1.285156 -19.21875 0.421875 -19.21875 Z M 0.421875 -19.21875 "/></g></g><g style="fill:#000000;fill-opacity:1;"><g transform="translate(152.257586, 44.780023)"><path style="stroke:none" d="M 0.90625 -9.953125 C 0.90625 -11.835938 1.253906 -13.550781 1.953125 -15.09375 C 2.648438 -16.632812 3.6875 -17.863281 5.0625 -18.78125 C 6.4375 -19.695312 8.117188 -20.15625 10.109375 -20.15625 C 11.109375 -20.15625 11.957031 -20.050781 12.65625 -19.84375 C 13.363281 -19.644531 13.984375 -19.441406 14.515625 -19.234375 C 15.046875 -19.023438 15.53125 -18.921875 15.96875 -18.921875 C 16.269531 -18.921875 16.53125 -18.988281 16.75 -19.125 C 16.96875 -19.269531 17.21875 -19.53125 17.5 -19.90625 L 18.1875 -19.90625 L 18.1875 -13.015625 L 17.5 -13.015625 C 16.820312 -15.066406 15.9375 -16.648438 14.84375 -17.765625 C 13.75 -18.890625 12.550781 -19.453125 11.25 -19.453125 C 9.726562 -19.453125 8.5625 -18.640625 7.75 -17.015625 C 6.9375 -15.398438 6.53125 -13.046875 6.53125 -9.953125 C 6.53125 -6.910156 6.921875 -4.566406 7.703125 -2.921875 C 8.484375 -1.273438 9.601562 -0.453125 11.0625 -0.453125 C 11.425781 -0.453125 11.785156 -0.5 12.140625 -0.59375 C 12.503906 -0.695312 12.867188 -0.835938 13.234375 -1.015625 L 13.234375 -7 C 13.234375 -7.882812 13.109375 -8.5 12.859375 -8.84375 C 12.609375 -9.1875 12.148438 -9.375 11.484375 -9.40625 L 10.828125 -9.40625 L 10.828125 -10.109375 L 20.296875 -10.109375 L 20.296875 -9.40625 C 19.734375 -9.40625 19.296875 -9.1875 18.984375 -8.75 C 18.679688 -8.3125 18.46875 -7.738281 18.34375 -7.03125 C 18.226562 -6.332031 18.171875 -5.585938 18.171875 -4.796875 C 18.171875 -4.003906 18.195312 -3.25 18.25 -2.53125 C 18.3125 -1.820312 18.378906 -1.234375 18.453125 -0.765625 C 18.523438 -0.296875 18.5625 -0.0390625 18.5625 0 L 17.890625 0.234375 C 17.628906 -0.0546875 17.332031 -0.328125 17 -0.578125 C 16.675781 -0.835938 16.253906 -0.96875 15.734375 -0.96875 C 15.234375 -0.96875 14.722656 -0.863281 14.203125 -0.65625 C 13.691406 -0.457031 13.109375 -0.257812 12.453125 -0.0625 C 11.804688 0.132812 11.015625 0.234375 10.078125 0.234375 C 8.253906 0.234375 6.648438 -0.179688 5.265625 -1.015625 C 3.878906 -1.859375 2.804688 -3.046875 2.046875 -4.578125 C 1.285156 -6.117188 0.90625 -7.910156 0.90625 -9.953125 Z M 0.90625 -9.953125 "/></g></g><g style="fill:#000000;fill-opacity:1;"><g transform="translate(172.734743, 44.780023)"><path style="stroke:none" d="M 3.421875 -16.59375 C 3.421875 -17.363281 3.347656 -17.929688 3.203125 -18.296875 C 3.066406 -18.671875 2.785156 -18.914062 2.359375 -19.03125 C 1.929688 -19.15625 1.285156 -19.21875 0.421875 -19.21875 L 0.421875 -19.90625 L 17.984375 -19.90625 L 18.828125 -13.109375 L 18.140625 -13.109375 C 17.390625 -15.316406 16.53125 -16.882812 15.5625 -17.8125 C 14.59375 -18.75 13.304688 -19.21875 11.703125 -19.21875 C 10.640625 -19.21875 9.878906 -19.007812 9.421875 -18.59375 C 8.972656 -18.1875 8.75 -17.519531 8.75 -16.59375 L 8.75 -10.109375 C 10.25 -10.109375 11.453125 -10.457031 12.359375 -11.15625 C 13.265625 -11.851562 13.878906 -13 14.203125 -14.59375 L 14.890625 -14.59375 L 14.890625 -4.9375 L 14.203125 -4.9375 C 13.878906 -6.539062 13.265625 -7.6875 12.359375 -8.375 C 11.453125 -9.0625 10.25 -9.40625 8.75 -9.40625 L 8.75 -3.3125 C 8.75 -2.382812 8.984375 -1.710938 9.453125 -1.296875 C 9.929688 -0.890625 10.769531 -0.6875 11.96875 -0.6875 C 13.175781 -0.6875 14.191406 -0.890625 15.015625 -1.296875 C 15.847656 -1.710938 16.566406 -2.363281 17.171875 -3.25 C 17.773438 -4.144531 18.316406 -5.328125 18.796875 -6.796875 L 19.484375 -6.796875 L 18.640625 0 L 0.421875 0 L 0.421875 -0.6875 C 1.285156 -0.6875 1.929688 -0.742188 2.359375 -0.859375 C 2.785156 -0.984375 3.066406 -1.238281 3.203125 -1.625 C 3.347656 -2.007812 3.421875 -2.570312 3.421875 -3.3125 Z M 3.421875 -16.59375 "/></g></g><g style="fill:#000000;fill-opacity:1;"><g transform="translate(192.580438, 44.780023)"><path style="stroke:none" d="M 0.421875 0 L 0.421875 -0.6875 C 1.285156 -0.6875 1.929688 -0.742188 2.359375 -0.859375 C 2.785156 -0.984375 3.066406 -1.238281 3.203125 -1.625 C 3.347656 -2.007812 3.421875 -2.570312 3.421875 -3.3125 L 3.421875 -16.59375 C 3.421875 -17.363281 3.347656 -17.929688 3.203125 -18.296875 C 3.066406 -18.671875 2.785156 -18.914062 2.359375 -19.03125 C 1.929688 -19.15625 1.285156 -19.21875 0.421875 -19.21875 L 0.421875 -19.90625 L 8.71875 -19.90625 L 18.828125 -6.4375 L 18.828125 -16.59375 C 18.828125 -17.363281 18.757812 -17.929688 18.625 -18.296875 C 18.5 -18.671875 18.25 -18.914062 17.875 -19.03125 C 17.507812 -19.15625 16.960938 -19.21875 16.234375 -19.21875 L 15.96875 -19.21875 L 15.96875 -19.90625 L 22.53125 -19.90625 L 22.53125 -19.21875 C 21.664062 -19.21875 21.015625 -19.15625 20.578125 -19.03125 C 20.148438 -18.914062 19.863281 -18.671875 19.71875 -18.296875 C 19.582031 -17.929688 19.515625 -17.363281 19.515625 -16.59375 L 19.515625 0 L 17 0 L 4.125 -17.171875 L 4.125 -3.3125 C 4.125 -2.570312 4.191406 -2.007812 4.328125 -1.625 C 4.472656 -1.238281 4.757812 -0.984375 5.1875 -0.859375 C 5.613281 -0.742188 6.257812 -0.6875 7.125 -0.6875 L 7.125 0 Z M 0.421875 0 "/></g></g><g style="fill:#000000;fill-opacity:1;"><g transform="translate(215.52327, 44.780023)"><path style="stroke:none" d="M 0.421875 0 L 0.421875 -0.6875 C 1.285156 -0.6875 1.929688 -0.742188 2.359375 -0.859375 C 2.785156 -0.984375 3.066406 -1.238281 3.203125 -1.625 C 3.347656 -2.007812 3.421875 -2.570312 3.421875 -3.3125 L 3.421875 -16.59375 C 3.421875 -17.363281 3.347656 -17.929688 3.203125 -18.296875 C 3.066406 -18.671875 2.785156 -18.914062 2.359375 -19.03125 C 1.929688 -19.15625 1.285156 -19.21875 0.421875 -19.21875 L 0.421875 -19.90625 L 11.515625 -19.90625 C 14.140625 -19.90625 16.164062 -19.46875 17.59375 -18.59375 C 19.019531 -17.726562 19.734375 -16.484375 19.734375 -14.859375 C 19.734375 -12.566406 18.078125 -11.0625 14.765625 -10.34375 C 16.609375 -10.25 18.019531 -9.785156 19 -8.953125 C 19.988281 -8.117188 20.484375 -6.957031 20.484375 -5.46875 C 20.484375 -3.707031 19.753906 -2.351562 18.296875 -1.40625 C 16.847656 -0.46875 14.78125 0 12.09375 0 Z M 8.75 -2.953125 C 8.75 -2.066406 8.863281 -1.46875 9.09375 -1.15625 C 9.320312 -0.84375 9.75 -0.6875 10.375 -0.6875 L 11.515625 -0.6875 C 12.140625 -0.6875 12.703125 -0.890625 13.203125 -1.296875 C 13.703125 -1.710938 14.101562 -2.265625 14.40625 -2.953125 C 14.707031 -3.648438 14.859375 -4.421875 14.859375 -5.265625 C 14.859375 -6.128906 14.707031 -6.90625 14.40625 -7.59375 C 14.101562 -8.28125 13.703125 -8.832031 13.203125 -9.25 C 12.703125 -9.675781 12.140625 -9.890625 11.515625 -9.890625 L 8.75 -9.890625 Z M 8.75 -19.21875 L 8.75 -10.59375 L 10.953125 -10.59375 C 11.867188 -10.59375 12.625 -10.992188 13.21875 -11.796875 C 13.8125 -12.609375 14.109375 -13.628906 14.109375 -14.859375 C 14.109375 -16.097656 13.8125 -17.132812 13.21875 -17.96875 C 12.625 -18.800781 11.867188 -19.21875 10.953125 -19.21875 Z M 8.75 -19.21875 "/></g></g><g style="fill:#000000;fill-opacity:1;"><g transform="translate(236.120658, 44.780023)"><path style="stroke:none" d="M 3.421875 -16.59375 C 3.421875 -17.363281 3.347656 -17.929688 3.203125 -18.296875 C 3.066406 -18.671875 2.785156 -18.914062 2.359375 -19.03125 C 1.929688 -19.15625 1.285156 -19.21875 0.421875 -19.21875 L 0.421875 -19.90625 L 17.984375 -19.90625 L 18.828125 -13.109375 L 18.140625 -13.109375 C 17.390625 -15.316406 16.53125 -16.882812 15.5625 -17.8125 C 14.59375 -18.75 13.304688 -19.21875 11.703125 -19.21875 C 10.640625 -19.21875 9.878906 -19.007812 9.421875 -18.59375 C 8.972656 -18.1875 8.75 -17.519531 8.75 -16.59375 L 8.75 -10.109375 C 10.25 -10.109375 11.453125 -10.457031 12.359375 -11.15625 C 13.265625 -11.851562 13.878906 -13 14.203125 -14.59375 L 14.890625 -14.59375 L 14.890625 -4.9375 L 14.203125 -4.9375 C 13.878906 -6.539062 13.265625 -7.6875 12.359375 -8.375 C 11.453125 -9.0625 10.25 -9.40625 8.75 -9.40625 L 8.75 -3.3125 C 8.75 -2.382812 8.984375 -1.710938 9.453125 -1.296875 C 9.929688 -0.890625 10.769531 -0.6875 11.96875 -0.6875 C 13.175781 -0.6875 14.191406 -0.890625 15.015625 -1.296875 C 15.847656 -1.710938 16.566406 -2.363281 17.171875 -3.25 C 17.773438 -4.144531 18.316406 -5.328125 18.796875 -6.796875 L 19.484375 -6.796875 L 18.640625 0 L 0.421875 0 L 0.421875 -0.6875 C 1.285156 -0.6875 1.929688 -0.742188 2.359375 -0.859375 C 2.785156 -0.984375 3.066406 -1.238281 3.203125 -1.625 C 3.347656 -2.007812 3.421875 -2.570312 3.421875 -3.3125 Z M 3.421875 -16.59375 "/></g></g><g style="fill:#000000;fill-opacity:1;"><g transform="translate(255.966353, 44.780023)"><path style="stroke:none" d="M 0.421875 0 L 0.421875 -0.6875 C 1.285156 -0.6875 1.929688 -0.742188 2.359375 -0.859375 C 2.785156 -0.984375 3.066406 -1.238281 3.203125 -1.625 C 3.347656 -2.007812 3.421875 -2.570312 3.421875 -3.3125 L 3.421875 -16.59375 C 3.421875 -17.363281 3.347656 -17.929688 3.203125 -18.296875 C 3.066406 -18.671875 2.785156 -18.914062 2.359375 -19.03125 C 1.929688 -19.15625 1.285156 -19.21875 0.421875 -19.21875 L 0.421875 -19.90625 L 8.71875 -19.90625 L 18.828125 -6.4375 L 18.828125 -16.59375 C 18.828125 -17.363281 18.757812 -17.929688 18.625 -18.296875 C 18.5 -18.671875 18.25 -18.914062 17.875 -19.03125 C 17.507812 -19.15625 16.960938 -19.21875 16.234375 -19.21875 L 15.96875 -19.21875 L 15.96875 -19.90625 L 22.53125 -19.90625 L 22.53125 -19.21875 C 21.664062 -19.21875 21.015625 -19.15625 20.578125 -19.03125 C 20.148438 -18.914062 19.863281 -18.671875 19.71875 -18.296875 C 19.582031 -17.929688 19.515625 -17.363281 19.515625 -16.59375 L 19.515625 0 L 17 0 L 4.125 -17.171875 L 4.125 -3.3125 C 4.125 -2.570312 4.191406 -2.007812 4.328125 -1.625 C 4.472656 -1.238281 4.757812 -0.984375 5.1875 -0.859375 C 5.613281 -0.742188 6.257812 -0.6875 7.125 -0.6875 L 7.125 0 Z M 0.421875 0 "/></g></g><g style="fill:#000000;fill-opacity:1;"><g transform="translate(278.307712, 44.780023)"><path style="stroke:none" d="M 0.90625 -9.953125 C 0.90625 -11.835938 1.253906 -13.550781 1.953125 -15.09375 C 2.648438 -16.632812 3.6875 -17.863281 5.0625 -18.78125 C 6.4375 -19.695312 8.117188 -20.15625 10.109375 -20.15625 C 11.109375 -20.15625 11.941406 -20.050781 12.609375 -19.84375 C 13.285156 -19.644531 13.875 -19.441406 14.375 -19.234375 C 14.875 -19.023438 15.347656 -18.921875 15.796875 -18.921875 C 16.085938 -18.921875 16.34375 -18.988281 16.5625 -19.125 C 16.789062 -19.269531 17.046875 -19.53125 17.328125 -19.90625 L 18.015625 -19.90625 L 18.015625 -13.015625 L 17.328125 -13.015625 C 16.640625 -15.066406 15.75 -16.648438 14.65625 -17.765625 C 13.5625 -18.890625 12.363281 -19.453125 11.0625 -19.453125 C 10.164062 -19.453125 9.425781 -19.1875 8.84375 -18.65625 C 8.257812 -18.125 7.796875 -17.398438 7.453125 -16.484375 C 7.117188 -15.578125 6.878906 -14.5625 6.734375 -13.4375 C 6.597656 -12.320312 6.53125 -11.160156 6.53125 -9.953125 C 6.53125 -6.890625 6.9375 -4.539062 7.75 -2.90625 C 8.5625 -1.269531 9.769531 -0.453125 11.375 -0.453125 C 11.65625 -0.453125 12.050781 -0.503906 12.5625 -0.609375 C 13.070312 -0.722656 13.644531 -0.984375 14.28125 -1.390625 C 14.925781 -1.804688 15.566406 -2.445312 16.203125 -3.3125 C 16.847656 -4.1875 17.421875 -5.378906 17.921875 -6.890625 L 18.609375 -6.890625 L 17.921875 -2.796875 C 17.222656 -2.054688 16.238281 -1.363281 14.96875 -0.71875 C 13.707031 -0.0820312 12.1875 0.234375 10.40625 0.234375 C 8.457031 0.234375 6.769531 -0.179688 5.34375 -1.015625 C 3.925781 -1.859375 2.832031 -3.046875 2.0625 -4.578125 C 1.289062 -6.117188 0.90625 -7.910156 0.90625 -9.953125 Z M 0.90625 -9.953125 "/></g></g><g style="fill:#000000;fill-opacity:1;"><g transform="translate(297.281405, 44.780023)"><path style="stroke:none" d="M 0.421875 -0.6875 C 1.285156 -0.6875 1.929688 -0.742188 2.359375 -0.859375 C 2.785156 -0.984375 3.066406 -1.238281 3.203125 -1.625 C 3.347656 -2.007812 3.421875 -2.570312 3.421875 -3.3125 L 3.421875 -16.59375 C 3.421875 -17.363281 3.347656 -17.929688 3.203125 -18.296875 C 3.066406 -18.671875 2.785156 -18.914062 2.359375 -19.03125 C 1.929688 -19.15625 1.285156 -19.21875 0.421875 -19.21875 L 0.421875 -19.90625 L 11.765625 -19.90625 L 11.765625 -19.21875 C 10.898438 -19.21875 10.25 -19.15625 9.8125 -19.03125 C 9.382812 -18.914062 9.097656 -18.671875 8.953125 -18.296875 C 8.816406 -17.929688 8.75 -17.363281 8.75 -16.59375 L 8.75 -10.703125 L 17.296875 -10.703125 L 17.296875 -16.59375 C 17.296875 -17.363281 17.222656 -17.929688 17.078125 -18.296875 C 16.941406 -18.671875 16.65625 -18.914062 16.21875 -19.03125 C 15.789062 -19.15625 15.144531 -19.21875 14.28125 -19.21875 L 14.28125 -19.90625 L 25.625 -19.90625 L 25.625 -19.21875 C 24.757812 -19.21875 24.109375 -19.15625 23.671875 -19.03125 C 23.242188 -18.914062 22.957031 -18.671875 22.8125 -18.296875 C 22.675781 -17.929688 22.609375 -17.363281 22.609375 -16.59375 L 22.609375 -3.3125 C 22.609375 -2.570312 22.675781 -2.007812 22.8125 -1.625 C 22.957031 -1.238281 23.242188 -0.984375 23.671875 -0.859375 C 24.109375 -0.742188 24.757812 -0.6875 25.625 -0.6875 L 25.625 0 L 14.28125 0 L 14.28125 -0.6875 C 15.144531 -0.6875 15.789062 -0.742188 16.21875 -0.859375 C 16.65625 -0.984375 16.941406 -1.238281 17.078125 -1.625 C 17.222656 -2.007812 17.296875 -2.570312 17.296875 -3.3125 L 17.296875 -10.015625 L 8.75 -10.015625 L 8.75 -3.3125 C 8.75 -2.570312 8.816406 -2.007812 8.953125 -1.625 C 9.097656 -1.238281 9.382812 -0.984375 9.8125 -0.859375 C 10.25 -0.742188 10.898438 -0.6875 11.765625 -0.6875 L 11.765625 0 L 0.421875 0 Z M 0.421875 -0.6875 "/></g></g></g></svg>