<svg xmlns="http://www.w3.org/2000/svg" xmlns:xlink="http://www.w3.org/1999/xlink" width="428" zoomAndPan="magnify" viewBox="0 0 321 79.499998" height="106" preserveAspectRatio="xMidYMid meet" version="1.2"><defs><clipPath id="d17e01d965"><path d="M 2 0 L 81 0 L 81 78.257812 L 2 78.257812 Z M 2 0 "/></clipPath><clipPath id="2579118b80"><path d="M 33 25 L 49 25 L 49 56 L 33 56 Z M 33 25 "/></clipPath><clipPath id="7a3521c3c0"><path d="M 9.058594 35.050781 L 38.570312 5.539062 L 68.085938 35.050781 L 38.570312 64.5625 Z M 9.058594 35.050781 "/></clipPath><clipPath id="c587c5dfd2"><path d="M 9.058594 35.050781 L 38.570312 5.539062 L 68.085938 35.050781 L 38.570312 64.5625 Z M 9.058594 35.050781 "/></clipPath><clipPath id="4f0b435d07"><path d="M 33 26 L 47 26 L 47 56 L 33 56 Z M 33 26 "/></clipPath><clipPath id="861f335c69"><path d="M 9.058594 35.050781 L 38.570312 5.539062 L 68.085938 35.050781 L 38.570312 64.5625 Z M 9.058594 35.050781 "/></clipPath><clipPath id="38aa94b9c0"><path d="M 9.058594 35.050781 L 38.570312 5.539062 L 68.085938 35.050781 L 38.570312 64.5625 Z M 9.058594 35.050781 "/></clipPath><clipPath id="d283802080"><path d="M 46 37 L 60 37 L 60 44 L 46 44 Z M 46 37 "/></clipPath><clipPath id="20397be715"><path d="M 9.058594 35.050781 L 38.570312 5.539062 L 68.085938 35.050781 L 38.570312 64.5625 Z M 9.058594 35.050781 "/></clipPath><clipPath id="d15c4914a3"><path d="M 9.058594 35.050781 L 38.570312 5.539062 L 68.085938 35.050781 L 38.570312 64.5625 Z M 9.058594 35.050781 "/></clipPath><clipPath id="8ffdf73f5e"><path d="M 47 39 L 60 39 L 60 44 L 47 44 Z M 47 39 "/></clipPath><clipPath id="13fbdcafc8"><path d="M 9.058594 35.050781 L 38.570312 5.539062 L 68.085938 35.050781 L 38.570312 64.5625 Z M 9.058594 35.050781 "/></clipPath><clipPath id="6fa11d1e10"><path d="M 9.058594 35.050781 L 38.570312 5.539062 L 68.085938 35.050781 L 38.570312 64.5625 Z M 9.058594 35.050781 "/></clipPath><clipPath id="c5b88a0e06"><path d="M 17 26 L 32 26 L 32 33 L 17 33 Z M 17 26 "/></clipPath><clipPath id="b06b54fbe0"><path d="M 9.058594 35.050781 L 38.570312 5.539062 L 68.085938 35.050781 L 38.570312 64.5625 Z M 9.058594 35.050781 "/></clipPath><clipPath id="cd185fd146"><path d="M 9.058594 35.050781 L 38.570312 5.539062 L 68.085938 35.050781 L 38.570312 64.5625 Z M 9.058594 35.050781 "/></clipPath><clipPath id="7a42f28cd9"><path d="M 18 26 L 32 26 L 32 31 L 18 31 Z M 18 26 "/></clipPath><clipPath id="98fcf6e82a"><path d="M 9.058594 35.050781 L 38.570312 5.539062 L 68.085938 35.050781 L 38.570312 64.5625 Z M 9.058594 35.050781 "/></clipPath><clipPath id="908a970d4d"><path d="M 9.058594 35.050781 L 38.570312 5.539062 L 68.085938 35.050781 L 38.570312 64.5625 Z M 9.058594 35.050781 "/></clipPath><clipPath id="548489cc1e"><path d="M 28 14 L 44 14 L 44 45 L 28 45 Z M 28 14 "/></clipPath><clipPath id="2d3eb93bbc"><path d="M 9.058594 35.050781 L 38.570312 5.539062 L 68.085938 35.050781 L 38.570312 64.5625 Z M 9.058594 35.050781 "/></clipPath><clipPath id="41198e5021"><path d="M 9.058594 35.050781 L 38.570312 5.539062 L 68.085938 35.050781 L 38.570312 64.5625 Z M 9.058594 35.050781 "/></clipPath><clipPath id="5d57a74a17"><path d="M 33 26 L 36 26 L 36 31 L 33 31 Z M 33 26 "/></clipPath><clipPath id="d2882719c0"><path d="M 9.058594 35.050781 L 38.570312 5.539062 L 68.085938 35.050781 L 38.570312 64.5625 Z M 9.058594 35.050781 "/></clipPath><clipPath id="b2dc0fac5b"><path d="M 9.058594 35.050781 L 38.570312 5.539062 L 68.085938 35.050781 L 38.570312 64.5625 Z M 9.058594 35.050781 "/></clipPath><clipPath id="5ee9eeb15d"><path d="M 30 14 L 44 14 L 44 45 L 30 45 Z M 30 14 "/></clipPath><clipPath id="ae0bd3d3a8"><path d="M 9.058594 35.050781 L 38.570312 5.539062 L 68.085938 35.050781 L 38.570312 64.5625 Z M 9.058594 35.050781 "/></clipPath><clipPath id="1e6fc2c616"><path d="M 9.058594 35.050781 L 38.570312 5.539062 L 68.085938 35.050781 L 38.570312 64.5625 Z M 9.058594 35.050781 "/></clipPath><clipPath id="dad827eefb"><path d="M 46 38 L 49 38 L 49 43 L 46 43 Z M 46 38 "/></clipPath><clipPath id="846012e50a"><path d="M 9.058594 35.050781 L 38.570312 5.539062 L 68.085938 35.050781 L 38.570312 64.5625 Z M 9.058594 35.050781 "/></clipPath><clipPath id="15a73b006c"><path d="M 9.058594 35.050781 L 38.570312 5.539062 L 68.085938 35.050781 L 38.570312 64.5625 Z M 9.058594 35.050781 "/></clipPath><clipPath id="38356ad609"><path d="M 16 13 L 61 13 L 61 57 L 16 57 Z M 16 13 "/></clipPath><clipPath id="4e481cbed7"><path d="M 9.058594 35.050781 L 38.570312 5.539062 L 68.085938 35.050781 L 38.570312 64.5625 Z M 9.058594 35.050781 "/></clipPath><clipPath id="9d0ea998fa"><path d="M 9.058594 35.050781 L 38.570312 5.539062 L 68.085938 35.050781 L 38.570312 64.5625 Z M 9.058594 35.050781 "/></clipPath></defs><g id="67a9030e3b"><g clip-rule="nonzero" clip-path="url(#d17e01d965)"><path style=" stroke:none;fill-rule:nonzero;fill:#fcfeff;fill-opacity:1;" d="M 80.964844 70.214844 C 80.917969 69.410156 80.515625 68.640625 79.875 68.113281 L 61.890625 53.257812 C 66.398438 47.488281 68.835938 40.4375 68.835938 33 C 68.835938 24.195312 65.410156 15.90625 59.179688 9.671875 C 52.949219 3.441406 44.660156 0.015625 35.851562 0.015625 C 27.046875 0.015625 18.753906 3.441406 12.523438 9.671875 C 6.292969 15.90625 2.867188 24.195312 2.867188 33 C 2.867188 41.808594 6.292969 50.097656 12.523438 56.328125 C 18.753906 62.558594 27.046875 65.984375 35.851562 65.984375 C 43.015625 65.984375 49.820312 63.71875 55.476562 59.523438 L 71.355469 77.035156 C 71.917969 77.65625 72.699219 78.011719 73.503906 78.023438 L 73.539062 78.023438 C 74.261719 78.023438 74.917969 77.746094 75.402344 77.242188 L 80.277344 72.148438 C 80.757812 71.640625 81.011719 70.953125 80.964844 70.214844 Z M 6.878906 33 C 6.878906 17.03125 19.871094 4.027344 35.851562 4.027344 C 51.832031 4.027344 64.824219 17.019531 64.824219 33 C 64.824219 48.96875 51.832031 61.972656 35.851562 61.972656 C 19.871094 61.972656 6.878906 48.96875 6.878906 33 Z M 6.878906 33 "/></g><path style=" stroke:none;fill-rule:nonzero;fill:#fcfeff;fill-opacity:1;" d="M 11.464844 36.804688 C 16.546875 10.570312 38.945312 7.960938 38.945312 7.960938 C 8.683594 9.351562 11.464844 36.804688 11.464844 36.804688 Z M 11.464844 36.804688 "/><g style="fill:#fcfeff;fill-opacity:1;"><g transform="translate(71.548983, 48.083306)"><path style="stroke:none" d="M 0.421875 -19.21875 L 0.421875 -19.90625 L 9 -19.90625 L 15.484375 -6.25 L 21.859375 -19.90625 L 30.1875 -19.90625 L 30.1875 -19.21875 C 29.332031 -19.21875 28.6875 -19.15625 28.25 -19.03125 C 27.820312 -18.914062 27.535156 -18.671875 27.390625 -18.296875 C 27.253906 -17.929688 27.1875 -17.363281 27.1875 -16.59375 L 27.1875 -3.3125 C 27.1875 -2.570312 27.253906 -2.007812 27.390625 -1.625 C 27.535156 -1.238281 27.820312 -0.984375 28.25 -0.859375 C 28.6875 -0.742188 29.332031 -0.6875 30.1875 -0.6875 L 30.1875 0 L 18.859375 0 L 18.859375 -0.6875 C 19.722656 -0.6875 20.367188 -0.742188 20.796875 -0.859375 C 21.222656 -0.984375 21.503906 -1.238281 21.640625 -1.625 C 21.785156 -2.007812 21.859375 -2.570312 21.859375 -3.3125 L 21.859375 -17.53125 L 13.40625 0 L 12.578125 0 L 4.125 -17.53125 L 4.125 -3.3125 C 4.125 -2.570312 4.191406 -2.007812 4.328125 -1.625 C 4.472656 -1.238281 4.757812 -0.984375 5.1875 -0.859375 C 5.613281 -0.742188 6.257812 -0.6875 7.125 -0.6875 L 7.125 0 L 0.421875 0 L 0.421875 -0.6875 C 1.285156 -0.6875 1.929688 -0.742188 2.359375 -0.859375 C 2.785156 -0.984375 3.066406 -1.238281 3.203125 -1.625 C 3.347656 -2.007812 3.421875 -2.570312 3.421875 -3.3125 L 3.421875 -16.59375 C 3.421875 -17.363281 3.347656 -17.929688 3.203125 -18.296875 C 3.066406 -18.671875 2.785156 -18.914062 2.359375 -19.03125 C 1.929688 -19.15625 1.285156 -19.21875 0.421875 -19.21875 Z M 0.421875 -19.21875 "/></g></g><g style="fill:#fcfeff;fill-opacity:1;"><g transform="translate(102.159471, 48.083306)"><path style="stroke:none" d="M 0.421875 0 L 0.421875 -0.6875 C 1.285156 -0.6875 1.929688 -0.742188 2.359375 -0.859375 C 2.785156 -0.984375 3.066406 -1.238281 3.203125 -1.625 C 3.347656 -2.007812 3.421875 -2.570312 3.421875 -3.3125 L 3.421875 -16.59375 C 3.421875 -17.363281 3.347656 -17.929688 3.203125 -18.296875 C 3.066406 -18.671875 2.785156 -18.914062 2.359375 -19.03125 C 1.929688 -19.15625 1.285156 -19.21875 0.421875 -19.21875 L 0.421875 -19.90625 L 8.71875 -19.90625 L 18.828125 -6.4375 L 18.828125 -16.59375 C 18.828125 -17.363281 18.757812 -17.929688 18.625 -18.296875 C 18.5 -18.671875 18.25 -18.914062 17.875 -19.03125 C 17.507812 -19.15625 16.960938 -19.21875 16.234375 -19.21875 L 15.96875 -19.21875 L 15.96875 -19.90625 L 22.53125 -19.90625 L 22.53125 -19.21875 C 21.664062 -19.21875 21.015625 -19.15625 20.578125 -19.03125 C 20.148438 -18.914062 19.863281 -18.671875 19.71875 -18.296875 C 19.582031 -17.929688 19.515625 -17.363281 19.515625 -16.59375 L 19.515625 0 L 17 0 L 4.125 -17.171875 L 4.125 -3.3125 C 4.125 -2.570312 4.191406 -2.007812 4.328125 -1.625 C 4.472656 -1.238281 4.757812 -0.984375 5.1875 -0.859375 C 5.613281 -0.742188 6.257812 -0.6875 7.125 -0.6875 L 7.125 0 Z M 0.421875 0 "/></g></g><g style="fill:#fcfeff;fill-opacity:1;"><g transform="translate(125.102302, 48.083306)"><path style="stroke:none" d="M 0.421875 -19.21875 L 0.421875 -19.90625 L 11.765625 -19.90625 L 11.765625 -19.21875 C 10.898438 -19.21875 10.25 -19.15625 9.8125 -19.03125 C 9.382812 -18.914062 9.097656 -18.671875 8.953125 -18.296875 C 8.816406 -17.929688 8.75 -17.363281 8.75 -16.59375 L 8.75 -3.3125 C 8.75 -2.570312 8.816406 -2.007812 8.953125 -1.625 C 9.097656 -1.238281 9.382812 -0.984375 9.8125 -0.859375 C 10.25 -0.742188 10.898438 -0.6875 11.765625 -0.6875 L 11.765625 0 L 0.421875 0 L 0.421875 -0.6875 C 1.285156 -0.6875 1.929688 -0.742188 2.359375 -0.859375 C 2.785156 -0.984375 3.066406 -1.238281 3.203125 -1.625 C 3.347656 -2.007812 3.421875 -2.570312 3.421875 -3.3125 L 3.421875 -16.59375 C 3.421875 -17.363281 3.347656 -17.929688 3.203125 -18.296875 C 3.066406 -18.671875 2.785156 -18.914062 2.359375 -19.03125 C 1.929688 -19.15625 1.285156 -19.21875 0.421875 -19.21875 Z M 0.421875 -19.21875 "/></g></g><g style="fill:#fcfeff;fill-opacity:1;"><g transform="translate(136.799168, 48.083306)"><path style="stroke:none" d="M 0.90625 -9.953125 C 0.90625 -11.835938 1.253906 -13.550781 1.953125 -15.09375 C 2.648438 -16.632812 3.6875 -17.863281 5.0625 -18.78125 C 6.4375 -19.695312 8.117188 -20.15625 10.109375 -20.15625 C 11.109375 -20.15625 11.957031 -20.050781 12.65625 -19.84375 C 13.363281 -19.644531 13.984375 -19.441406 14.515625 -19.234375 C 15.046875 -19.023438 15.53125 -18.921875 15.96875 -18.921875 C 16.269531 -18.921875 16.53125 -18.988281 16.75 -19.125 C 16.96875 -19.269531 17.21875 -19.53125 17.5 -19.90625 L 18.1875 -19.90625 L 18.1875 -13.015625 L 17.5 -13.015625 C 16.820312 -15.066406 15.9375 -16.648438 14.84375 -17.765625 C 13.75 -18.890625 12.550781 -19.453125 11.25 -19.453125 C 9.726562 -19.453125 8.5625 -18.640625 7.75 -17.015625 C 6.9375 -15.398438 6.53125 -13.046875 6.53125 -9.953125 C 6.53125 -6.910156 6.921875 -4.566406 7.703125 -2.921875 C 8.484375 -1.273438 9.601562 -0.453125 11.0625 -0.453125 C 11.425781 -0.453125 11.785156 -0.5 12.140625 -0.59375 C 12.503906 -0.695312 12.867188 -0.835938 13.234375 -1.015625 L 13.234375 -7 C 13.234375 -7.882812 13.109375 -8.5 12.859375 -8.84375 C 12.609375 -9.1875 12.148438 -9.375 11.484375 -9.40625 L 10.828125 -9.40625 L 10.828125 -10.109375 L 20.296875 -10.109375 L 20.296875 -9.40625 C 19.734375 -9.40625 19.296875 -9.1875 18.984375 -8.75 C 18.679688 -8.3125 18.46875 -7.738281 18.34375 -7.03125 C 18.226562 -6.332031 18.171875 -5.585938 18.171875 -4.796875 C 18.171875 -4.003906 18.195312 -3.25 18.25 -2.53125 C 18.3125 -1.820312 18.378906 -1.234375 18.453125 -0.765625 C 18.523438 -0.296875 18.5625 -0.0390625 18.5625 0 L 17.890625 0.234375 C 17.628906 -0.0546875 17.332031 -0.328125 17 -0.578125 C 16.675781 -0.835938 16.253906 -0.96875 15.734375 -0.96875 C 15.234375 -0.96875 14.722656 -0.863281 14.203125 -0.65625 C 13.691406 -0.457031 13.109375 -0.257812 12.453125 -0.0625 C 11.804688 0.132812 11.015625 0.234375 10.078125 0.234375 C 8.253906 0.234375 6.648438 -0.179688 5.265625 -1.015625 C 3.878906 -1.859375 2.804688 -3.046875 2.046875 -4.578125 C 1.285156 -6.117188 0.90625 -7.910156 0.90625 -9.953125 Z M 0.90625 -9.953125 "/></g></g><g style="fill:#fcfeff;fill-opacity:1;"><g transform="translate(157.276325, 48.083306)"><path style="stroke:none" d="M 3.421875 -16.59375 C 3.421875 -17.363281 3.347656 -17.929688 3.203125 -18.296875 C 3.066406 -18.671875 2.785156 -18.914062 2.359375 -19.03125 C 1.929688 -19.15625 1.285156 -19.21875 0.421875 -19.21875 L 0.421875 -19.90625 L 17.984375 -19.90625 L 18.828125 -13.109375 L 18.140625 -13.109375 C 17.390625 -15.316406 16.53125 -16.882812 15.5625 -17.8125 C 14.59375 -18.75 13.304688 -19.21875 11.703125 -19.21875 C 10.640625 -19.21875 9.878906 -19.007812 9.421875 -18.59375 C 8.972656 -18.1875 8.75 -17.519531 8.75 -16.59375 L 8.75 -10.109375 C 10.25 -10.109375 11.453125 -10.457031 12.359375 -11.15625 C 13.265625 -11.851562 13.878906 -13 14.203125 -14.59375 L 14.890625 -14.59375 L 14.890625 -4.9375 L 14.203125 -4.9375 C 13.878906 -6.539062 13.265625 -7.6875 12.359375 -8.375 C 11.453125 -9.0625 10.25 -9.40625 8.75 -9.40625 L 8.75 -3.3125 C 8.75 -2.382812 8.984375 -1.710938 9.453125 -1.296875 C 9.929688 -0.890625 10.769531 -0.6875 11.96875 -0.6875 C 13.175781 -0.6875 14.191406 -0.890625 15.015625 -1.296875 C 15.847656 -1.710938 16.566406 -2.363281 17.171875 -3.25 C 17.773438 -4.144531 18.316406 -5.328125 18.796875 -6.796875 L 19.484375 -6.796875 L 18.640625 0 L 0.421875 0 L 0.421875 -0.6875 C 1.285156 -0.6875 1.929688 -0.742188 2.359375 -0.859375 C 2.785156 -0.984375 3.066406 -1.238281 3.203125 -1.625 C 3.347656 -2.007812 3.421875 -2.570312 3.421875 -3.3125 Z M 3.421875 -16.59375 "/></g></g><g style="fill:#fcfeff;fill-opacity:1;"><g transform="translate(177.12202, 48.083306)"><path style="stroke:none" d="M 0.421875 0 L 0.421875 -0.6875 C 1.285156 -0.6875 1.929688 -0.742188 2.359375 -0.859375 C 2.785156 -0.984375 3.066406 -1.238281 3.203125 -1.625 C 3.347656 -2.007812 3.421875 -2.570312 3.421875 -3.3125 L 3.421875 -16.59375 C 3.421875 -17.363281 3.347656 -17.929688 3.203125 -18.296875 C 3.066406 -18.671875 2.785156 -18.914062 2.359375 -19.03125 C 1.929688 -19.15625 1.285156 -19.21875 0.421875 -19.21875 L 0.421875 -19.90625 L 8.71875 -19.90625 L 18.828125 -6.4375 L 18.828125 -16.59375 C 18.828125 -17.363281 18.757812 -17.929688 18.625 -18.296875 C 18.5 -18.671875 18.25 -18.914062 17.875 -19.03125 C 17.507812 -19.15625 16.960938 -19.21875 16.234375 -19.21875 L 15.96875 -19.21875 L 15.96875 -19.90625 L 22.53125 -19.90625 L 22.53125 -19.21875 C 21.664062 -19.21875 21.015625 -19.15625 20.578125 -19.03125 C 20.148438 -18.914062 19.863281 -18.671875 19.71875 -18.296875 C 19.582031 -17.929688 19.515625 -17.363281 19.515625 -16.59375 L 19.515625 0 L 17 0 L 4.125 -17.171875 L 4.125 -3.3125 C 4.125 -2.570312 4.191406 -2.007812 4.328125 -1.625 C 4.472656 -1.238281 4.757812 -0.984375 5.1875 -0.859375 C 5.613281 -0.742188 6.257812 -0.6875 7.125 -0.6875 L 7.125 0 Z M 0.421875 0 "/></g></g><g style="fill:#fcfeff;fill-opacity:1;"><g transform="translate(200.064852, 48.083306)"><path style="stroke:none" d="M 0.421875 0 L 0.421875 -0.6875 C 1.285156 -0.6875 1.929688 -0.742188 2.359375 -0.859375 C 2.785156 -0.984375 3.066406 -1.238281 3.203125 -1.625 C 3.347656 -2.007812 3.421875 -2.570312 3.421875 -3.3125 L 3.421875 -16.59375 C 3.421875 -17.363281 3.347656 -17.929688 3.203125 -18.296875 C 3.066406 -18.671875 2.785156 -18.914062 2.359375 -19.03125 C 1.929688 -19.15625 1.285156 -19.21875 0.421875 -19.21875 L 0.421875 -19.90625 L 11.515625 -19.90625 C 14.140625 -19.90625 16.164062 -19.46875 17.59375 -18.59375 C 19.019531 -17.726562 19.734375 -16.484375 19.734375 -14.859375 C 19.734375 -12.566406 18.078125 -11.0625 14.765625 -10.34375 C 16.609375 -10.25 18.019531 -9.785156 19 -8.953125 C 19.988281 -8.117188 20.484375 -6.957031 20.484375 -5.46875 C 20.484375 -3.707031 19.753906 -2.351562 18.296875 -1.40625 C 16.847656 -0.46875 14.78125 0 12.09375 0 Z M 8.75 -2.953125 C 8.75 -2.066406 8.863281 -1.46875 9.09375 -1.15625 C 9.320312 -0.84375 9.75 -0.6875 10.375 -0.6875 L 11.515625 -0.6875 C 12.140625 -0.6875 12.703125 -0.890625 13.203125 -1.296875 C 13.703125 -1.710938 14.101562 -2.265625 14.40625 -2.953125 C 14.707031 -3.648438 14.859375 -4.421875 14.859375 -5.265625 C 14.859375 -6.128906 14.707031 -6.90625 14.40625 -7.59375 C 14.101562 -8.28125 13.703125 -8.832031 13.203125 -9.25 C 12.703125 -9.675781 12.140625 -9.890625 11.515625 -9.890625 L 8.75 -9.890625 Z M 8.75 -19.21875 L 8.75 -10.59375 L 10.953125 -10.59375 C 11.867188 -10.59375 12.625 -10.992188 13.21875 -11.796875 C 13.8125 -12.609375 14.109375 -13.628906 14.109375 -14.859375 C 14.109375 -16.097656 13.8125 -17.132812 13.21875 -17.96875 C 12.625 -18.800781 11.867188 -19.21875 10.953125 -19.21875 Z M 8.75 -19.21875 "/></g></g><g style="fill:#fcfeff;fill-opacity:1;"><g transform="translate(220.662239, 48.083306)"><path style="stroke:none" d="M 3.421875 -16.59375 C 3.421875 -17.363281 3.347656 -17.929688 3.203125 -18.296875 C 3.066406 -18.671875 2.785156 -18.914062 2.359375 -19.03125 C 1.929688 -19.15625 1.285156 -19.21875 0.421875 -19.21875 L 0.421875 -19.90625 L 17.984375 -19.90625 L 18.828125 -13.109375 L 18.140625 -13.109375 C 17.390625 -15.316406 16.53125 -16.882812 15.5625 -17.8125 C 14.59375 -18.75 13.304688 -19.21875 11.703125 -19.21875 C 10.640625 -19.21875 9.878906 -19.007812 9.421875 -18.59375 C 8.972656 -18.1875 8.75 -17.519531 8.75 -16.59375 L 8.75 -10.109375 C 10.25 -10.109375 11.453125 -10.457031 12.359375 -11.15625 C 13.265625 -11.851562 13.878906 -13 14.203125 -14.59375 L 14.890625 -14.59375 L 14.890625 -4.9375 L 14.203125 -4.9375 C 13.878906 -6.539062 13.265625 -7.6875 12.359375 -8.375 C 11.453125 -9.0625 10.25 -9.40625 8.75 -9.40625 L 8.75 -3.3125 C 8.75 -2.382812 8.984375 -1.710938 9.453125 -1.296875 C 9.929688 -0.890625 10.769531 -0.6875 11.96875 -0.6875 C 13.175781 -0.6875 14.191406 -0.890625 15.015625 -1.296875 C 15.847656 -1.710938 16.566406 -2.363281 17.171875 -3.25 C 17.773438 -4.144531 18.316406 -5.328125 18.796875 -6.796875 L 19.484375 -6.796875 L 18.640625 0 L 0.421875 0 L 0.421875 -0.6875 C 1.285156 -0.6875 1.929688 -0.742188 2.359375 -0.859375 C 2.785156 -0.984375 3.066406 -1.238281 3.203125 -1.625 C 3.347656 -2.007812 3.421875 -2.570312 3.421875 -3.3125 Z M 3.421875 -16.59375 "/></g></g><g style="fill:#fcfeff;fill-opacity:1;"><g transform="translate(240.507935, 48.083306)"><path style="stroke:none" d="M 0.421875 0 L 0.421875 -0.6875 C 1.285156 -0.6875 1.929688 -0.742188 2.359375 -0.859375 C 2.785156 -0.984375 3.066406 -1.238281 3.203125 -1.625 C 3.347656 -2.007812 3.421875 -2.570312 3.421875 -3.3125 L 3.421875 -16.59375 C 3.421875 -17.363281 3.347656 -17.929688 3.203125 -18.296875 C 3.066406 -18.671875 2.785156 -18.914062 2.359375 -19.03125 C 1.929688 -19.15625 1.285156 -19.21875 0.421875 -19.21875 L 0.421875 -19.90625 L 8.71875 -19.90625 L 18.828125 -6.4375 L 18.828125 -16.59375 C 18.828125 -17.363281 18.757812 -17.929688 18.625 -18.296875 C 18.5 -18.671875 18.25 -18.914062 17.875 -19.03125 C 17.507812 -19.15625 16.960938 -19.21875 16.234375 -19.21875 L 15.96875 -19.21875 L 15.96875 -19.90625 L 22.53125 -19.90625 L 22.53125 -19.21875 C 21.664062 -19.21875 21.015625 -19.15625 20.578125 -19.03125 C 20.148438 -18.914062 19.863281 -18.671875 19.71875 -18.296875 C 19.582031 -17.929688 19.515625 -17.363281 19.515625 -16.59375 L 19.515625 0 L 17 0 L 4.125 -17.171875 L 4.125 -3.3125 C 4.125 -2.570312 4.191406 -2.007812 4.328125 -1.625 C 4.472656 -1.238281 4.757812 -0.984375 5.1875 -0.859375 C 5.613281 -0.742188 6.257812 -0.6875 7.125 -0.6875 L 7.125 0 Z M 0.421875 0 "/></g></g><g style="fill:#fcfeff;fill-opacity:1;"><g transform="translate(262.849294, 48.083306)"><path style="stroke:none" d="M 0.90625 -9.953125 C 0.90625 -11.835938 1.253906 -13.550781 1.953125 -15.09375 C 2.648438 -16.632812 3.6875 -17.863281 5.0625 -18.78125 C 6.4375 -19.695312 8.117188 -20.15625 10.109375 -20.15625 C 11.109375 -20.15625 11.941406 -20.050781 12.609375 -19.84375 C 13.285156 -19.644531 13.875 -19.441406 14.375 -19.234375 C 14.875 -19.023438 15.347656 -18.921875 15.796875 -18.921875 C 16.085938 -18.921875 16.34375 -18.988281 16.5625 -19.125 C 16.789062 -19.269531 17.046875 -19.53125 17.328125 -19.90625 L 18.015625 -19.90625 L 18.015625 -13.015625 L 17.328125 -13.015625 C 16.640625 -15.066406 15.75 -16.648438 14.65625 -17.765625 C 13.5625 -18.890625 12.363281 -19.453125 11.0625 -19.453125 C 10.164062 -19.453125 9.425781 -19.1875 8.84375 -18.65625 C 8.257812 -18.125 7.796875 -17.398438 7.453125 -16.484375 C 7.117188 -15.578125 6.878906 -14.5625 6.734375 -13.4375 C 6.597656 -12.320312 6.53125 -11.160156 6.53125 -9.953125 C 6.53125 -6.890625 6.9375 -4.539062 7.75 -2.90625 C 8.5625 -1.269531 9.769531 -0.453125 11.375 -0.453125 C 11.65625 -0.453125 12.050781 -0.503906 12.5625 -0.609375 C 13.070312 -0.722656 13.644531 -0.984375 14.28125 -1.390625 C 14.925781 -1.804688 15.566406 -2.445312 16.203125 -3.3125 C 16.847656 -4.1875 17.421875 -5.378906 17.921875 -6.890625 L 18.609375 -6.890625 L 17.921875 -2.796875 C 17.222656 -2.054688 16.238281 -1.363281 14.96875 -0.71875 C 13.707031 -0.0820312 12.1875 0.234375 10.40625 0.234375 C 8.457031 0.234375 6.769531 -0.179688 5.34375 -1.015625 C 3.925781 -1.859375 2.832031 -3.046875 2.0625 -4.578125 C 1.289062 -6.117188 0.90625 -7.910156 0.90625 -9.953125 Z M 0.90625 -9.953125 "/></g></g><g style="fill:#fcfeff;fill-opacity:1;"><g transform="translate(281.822986, 48.083306)"><path style="stroke:none" d="M 0.421875 -0.6875 C 1.285156 -0.6875 1.929688 -0.742188 2.359375 -0.859375 C 2.785156 -0.984375 3.066406 -1.238281 3.203125 -1.625 C 3.347656 -2.007812 3.421875 -2.570312 3.421875 -3.3125 L 3.421875 -16.59375 C 3.421875 -17.363281 3.347656 -17.929688 3.203125 -18.296875 C 3.066406 -18.671875 2.785156 -18.914062 2.359375 -19.03125 C 1.929688 -19.15625 1.285156 -19.21875 0.421875 -19.21875 L 0.421875 -19.90625 L 11.765625 -19.90625 L 11.765625 -19.21875 C 10.898438 -19.21875 10.25 -19.15625 9.8125 -19.03125 C 9.382812 -18.914062 9.097656 -18.671875 8.953125 -18.296875 C 8.816406 -17.929688 8.75 -17.363281 8.75 -16.59375 L 8.75 -10.703125 L 17.296875 -10.703125 L 17.296875 -16.59375 C 17.296875 -17.363281 17.222656 -17.929688 17.078125 -18.296875 C 16.941406 -18.671875 16.65625 -18.914062 16.21875 -19.03125 C 15.789062 -19.15625 15.144531 -19.21875 14.28125 -19.21875 L 14.28125 -19.90625 L 25.625 -19.90625 L 25.625 -19.21875 C 24.757812 -19.21875 24.109375 -19.15625 23.671875 -19.03125 C 23.242188 -18.914062 22.957031 -18.671875 22.8125 -18.296875 C 22.675781 -17.929688 22.609375 -17.363281 22.609375 -16.59375 L 22.609375 -3.3125 C 22.609375 -2.570312 22.675781 -2.007812 22.8125 -1.625 C 22.957031 -1.238281 23.242188 -0.984375 23.671875 -0.859375 C 24.109375 -0.742188 24.757812 -0.6875 25.625 -0.6875 L 25.625 0 L 14.28125 0 L 14.28125 -0.6875 C 15.144531 -0.6875 15.789062 -0.742188 16.21875 -0.859375 C 16.65625 -0.984375 16.941406 -1.238281 17.078125 -1.625 C 17.222656 -2.007812 17.296875 -2.570312 17.296875 -3.3125 L 17.296875 -10.015625 L 8.75 -10.015625 L 8.75 -3.3125 C 8.75 -2.570312 8.816406 -2.007812 8.953125 -1.625 C 9.097656 -1.238281 9.382812 -0.984375 9.8125 -0.859375 C 10.25 -0.742188 10.898438 -0.6875 11.765625 -0.6875 L 11.765625 0 L 0.421875 0 Z M 0.421875 -0.6875 "/></g></g><g clip-rule="nonzero" clip-path="url(#2579118b80)"><g clip-rule="nonzero" clip-path="url(#7a3521c3c0)"><g clip-rule="nonzero" clip-path="url(#c587c5dfd2)"><path style=" stroke:none;fill-rule:nonzero;fill:#db5669;fill-opacity:1;" d="M 45.949219 27.671875 C 49.773438 31.496094 48.023438 34.773438 44.949219 47.046875 C 44.6875 48.09375 44.699219 49.136719 44.988281 50.175781 C 45.277344 51.21875 45.800781 52.117188 46.566406 52.882812 C 46.726562 53.046875 46.851562 53.234375 46.941406 53.445312 C 47.03125 53.660156 47.074219 53.882812 47.074219 54.113281 C 47.074219 54.34375 47.03125 54.5625 46.941406 54.777344 C 46.851562 54.992188 46.726562 55.179688 46.566406 55.339844 C 46.402344 55.503906 46.214844 55.628906 46 55.71875 C 45.789062 55.808594 45.566406 55.851562 45.335938 55.851562 C 45.105469 55.851562 44.882812 55.808594 44.667969 55.71875 C 44.457031 55.628906 44.269531 55.503906 44.105469 55.339844 C 39.800781 51.039062 41.699219 46.507812 43.289062 40.171875 C 44.480469 35.21875 45.902344 32.542969 43.492188 30.132812 C 41.078125 27.722656 38.164062 29.160156 33.777344 30.253906 L 34.679688 26.644531 C 38.152344 25.78125 42.296875 24.019531 45.949219 27.671875 Z M 45.949219 27.671875 "/></g></g></g><g clip-rule="nonzero" clip-path="url(#4f0b435d07)"><g clip-rule="nonzero" clip-path="url(#861f335c69)"><g clip-rule="nonzero" clip-path="url(#38aa94b9c0)"><path style=" stroke:none;fill-rule:nonzero;fill:#ff3131;fill-opacity:1;" d="M 44.71875 28.902344 C 48.542969 32.726562 46.792969 36.003906 43.71875 48.277344 C 43.457031 49.324219 43.46875 50.367188 43.757812 51.40625 C 44.046875 52.445312 44.570312 53.347656 45.335938 54.113281 C 45.554688 54.332031 45.703125 54.589844 45.785156 54.890625 C 45.863281 55.191406 45.863281 55.492188 45.785156 55.789062 C 43.734375 56.300781 40.445312 51.523438 41.675781 46.59375 C 44.949219 33.484375 45.113281 33.710938 44.671875 32.160156 C 44.589844 31.875 44.484375 31.597656 44.351562 31.332031 C 44.21875 31.066406 44.058594 30.816406 43.878906 30.582031 C 43.695312 30.347656 43.496094 30.132812 43.269531 29.933594 C 43.046875 29.738281 42.808594 29.566406 42.550781 29.417969 C 42.292969 29.265625 42.027344 29.144531 41.746094 29.046875 C 41.464844 28.945312 41.175781 28.875 40.882812 28.835938 C 40.589844 28.792969 40.292969 28.777344 39.996094 28.792969 C 39.699219 28.808594 39.40625 28.851562 39.117188 28.921875 L 33.777344 30.253906 L 34.433594 27.628906 C 37.210938 26.941406 41.171875 25.355469 44.71875 28.902344 Z M 44.71875 28.902344 "/></g></g></g><g clip-rule="nonzero" clip-path="url(#d283802080)"><g clip-rule="nonzero" clip-path="url(#20397be715)"><g clip-rule="nonzero" clip-path="url(#d15c4914a3)"><path style=" stroke:none;fill-rule:nonzero;fill:#fcfeff;fill-opacity:1;" d="M 58.863281 40.585938 C 59.023438 40.75 59.148438 40.9375 59.238281 41.148438 C 59.328125 41.363281 59.371094 41.585938 59.371094 41.816406 C 59.371094 42.046875 59.328125 42.265625 59.238281 42.480469 C 59.148438 42.691406 59.023438 42.882812 58.863281 43.042969 C 58.699219 43.207031 58.511719 43.332031 58.296875 43.421875 C 58.085938 43.507812 57.863281 43.554688 57.632812 43.554688 C 57.402344 43.554688 57.179688 43.507812 56.964844 43.421875 C 56.753906 43.332031 56.566406 43.207031 56.402344 43.042969 C 53.414062 40.054688 50.191406 41.519531 46.074219 42.550781 L 46.976562 38.945312 C 50.492188 38.058594 54.796875 36.519531 58.863281 40.585938 Z M 58.863281 40.585938 "/><path style=" stroke:none;fill-rule:nonzero;fill:#fcfeff;fill-opacity:1;" d="M 58.863281 40.585938 C 59.023438 40.75 59.148438 40.9375 59.238281 41.148438 C 59.328125 41.363281 59.371094 41.585938 59.371094 41.816406 C 59.371094 42.046875 59.328125 42.265625 59.238281 42.480469 C 59.148438 42.691406 59.023438 42.882812 58.863281 43.042969 C 58.699219 43.207031 58.511719 43.332031 58.296875 43.421875 C 58.085938 43.507812 57.863281 43.554688 57.632812 43.554688 C 57.402344 43.554688 57.179688 43.507812 56.964844 43.421875 C 56.753906 43.332031 56.566406 43.207031 56.402344 43.042969 C 53.433594 40.074219 50.222656 41.511719 46.074219 42.550781 L 46.976562 38.945312 C 50.5 38.050781 54.792969 36.515625 58.863281 40.585938 Z M 58.863281 40.585938 "/></g></g></g><g clip-rule="nonzero" clip-path="url(#8ffdf73f5e)"><g clip-rule="nonzero" clip-path="url(#13fbdcafc8)"><g clip-rule="nonzero" clip-path="url(#6fa11d1e10)"><path style=" stroke:none;fill-rule:nonzero;fill:#fcfeff;fill-opacity:1;" d="M 59.167969 41.003906 C 59.308594 41.257812 59.375 41.527344 59.367188 41.816406 C 59.363281 42.164062 59.265625 42.484375 59.070312 42.777344 C 58.875 43.070312 58.617188 43.28125 58.292969 43.414062 C 57.96875 43.550781 57.636719 43.582031 57.292969 43.515625 C 56.949219 43.449219 56.652344 43.292969 56.402344 43.042969 C 55.636719 42.28125 54.738281 41.757812 53.695312 41.46875 C 52.65625 41.179688 51.613281 41.167969 50.566406 41.425781 C 47.460938 42.207031 47.855469 42.171875 47.917969 41.9375 L 48.371094 40.128906 C 51.6875 39.300781 55.265625 38.035156 59.167969 41.003906 Z M 59.167969 41.003906 "/></g></g></g><g clip-rule="nonzero" clip-path="url(#c5b88a0e06)"><g clip-rule="nonzero" clip-path="url(#b06b54fbe0)"><g clip-rule="nonzero" clip-path="url(#cd185fd146)"><path style=" stroke:none;fill-rule:nonzero;fill:#ff3131;fill-opacity:1;" d="M 31.070312 27.550781 L 30.167969 31.160156 C 27 31.953125 25.15625 32.664062 22.308594 31.910156 C 19.460938 31.152344 16.289062 28.59375 18.441406 26.898438 C 18.609375 26.769531 18.796875 26.675781 19 26.613281 C 19.203125 26.550781 19.410156 26.527344 19.621094 26.542969 C 19.832031 26.558594 20.035156 26.609375 20.226562 26.699219 C 20.421875 26.785156 20.59375 26.90625 20.742188 27.058594 C 23.730469 30.046875 26.949219 28.582031 31.070312 27.550781 Z M 31.070312 27.550781 "/></g></g></g><g clip-rule="nonzero" clip-path="url(#7a42f28cd9)"><g clip-rule="nonzero" clip-path="url(#98fcf6e82a)"><g clip-rule="nonzero" clip-path="url(#908a970d4d)"><path style=" stroke:none;fill-rule:nonzero;fill:#db5669;fill-opacity:1;" d="M 31.070312 27.550781 L 30.617188 29.359375 L 27.65625 30.089844 C 23.015625 31.265625 18.828125 28.34375 18.441406 26.898438 C 18.609375 26.769531 18.796875 26.675781 19 26.613281 C 19.203125 26.550781 19.410156 26.527344 19.621094 26.542969 C 19.832031 26.558594 20.035156 26.609375 20.226562 26.699219 C 20.421875 26.785156 20.59375 26.90625 20.742188 27.058594 C 23.730469 30.046875 26.949219 28.582031 31.070312 27.550781 Z M 31.070312 27.550781 "/></g></g></g><g clip-rule="nonzero" clip-path="url(#548489cc1e)"><g clip-rule="nonzero" clip-path="url(#2d3eb93bbc)"><g clip-rule="nonzero" clip-path="url(#41198e5021)"><path style=" stroke:none;fill-rule:nonzero;fill:#fcfeff;fill-opacity:1;" d="M 33.039062 14.761719 C 33.601562 15.324219 34.082031 15.949219 34.484375 16.636719 C 34.886719 17.320312 35.191406 18.050781 35.40625 18.816406 C 35.617188 19.582031 35.730469 20.363281 35.742188 21.160156 C 35.75 21.953125 35.660156 22.738281 35.464844 23.511719 C 32.398438 35.738281 31.234375 37.554688 33.652344 39.96875 C 34.222656 40.542969 34.898438 40.9375 35.679688 41.152344 C 36.457031 41.367188 37.238281 41.378906 38.023438 41.179688 L 43.367188 39.847656 L 42.507812 43.289062 C 42.445312 43.523438 42.90625 43.347656 38.484375 44.445312 C 38.003906 44.566406 37.515625 44.640625 37.019531 44.667969 C 36.523438 44.691406 36.03125 44.671875 35.542969 44.601562 C 35.050781 44.53125 34.570312 44.414062 34.101562 44.253906 C 33.632812 44.089844 33.183594 43.882812 32.757812 43.632812 C 32.328125 43.382812 31.925781 43.09375 31.554688 42.765625 C 31.183594 42.441406 30.84375 42.078125 30.542969 41.6875 C 30.238281 41.292969 29.976562 40.875 29.753906 40.429688 C 29.535156 39.988281 29.359375 39.527344 29.226562 39.046875 C 28.53125 36.546875 28.917969 36.15625 32.195312 23.054688 C 32.496094 21.84375 32.433594 20.652344 32.011719 19.476562 C 31.28125 17.417969 30.054688 17.265625 30.074219 15.992188 C 30.074219 15.640625 30.171875 15.320312 30.367188 15.027344 C 30.5625 14.738281 30.824219 14.523438 31.148438 14.390625 C 31.46875 14.253906 31.804688 14.222656 32.148438 14.289062 C 32.492188 14.355469 32.789062 14.515625 33.039062 14.761719 Z M 33.039062 14.761719 "/></g></g></g><g clip-rule="nonzero" clip-path="url(#5d57a74a17)"><g clip-rule="nonzero" clip-path="url(#d2882719c0)"><g clip-rule="nonzero" clip-path="url(#b2dc0fac5b)"><path style=" stroke:none;fill-rule:nonzero;fill:#ff3131;fill-opacity:1;" d="M 35.988281 26.320312 L 35.085938 29.929688 L 33.777344 30.253906 L 34.679688 26.644531 Z M 35.988281 26.320312 "/></g></g></g><g clip-rule="nonzero" clip-path="url(#5ee9eeb15d)"><g clip-rule="nonzero" clip-path="url(#ae0bd3d3a8)"><g clip-rule="nonzero" clip-path="url(#1e6fc2c616)"><path style=" stroke:none;fill-rule:nonzero;fill:#fcfeff;fill-opacity:1;" d="M 35.464844 23.511719 C 32.398438 35.738281 31.234375 37.554688 33.652344 39.96875 C 34.222656 40.542969 34.898438 40.9375 35.679688 41.152344 C 36.457031 41.367188 37.238281 41.378906 38.023438 41.179688 L 43.367188 39.847656 L 42.507812 43.289062 C 39.925781 43.929688 36.375 45.152344 33.039062 41.816406 C 32.570312 41.34375 32.167969 40.824219 31.835938 40.25 C 31.503906 39.679688 31.246094 39.074219 31.070312 38.433594 C 30.894531 37.792969 30.800781 37.144531 30.792969 36.480469 C 30.785156 35.820312 30.859375 35.164062 31.019531 34.523438 C 33.980469 22.636719 35.625 19.808594 32.421875 16.605469 C 32.273438 16.457031 32.152344 16.285156 32.0625 16.09375 C 31.972656 15.902344 31.921875 15.699219 31.90625 15.488281 C 31.890625 15.273438 31.914062 15.066406 31.976562 14.863281 C 32.039062 14.660156 32.132812 14.476562 32.261719 14.304688 C 33.867188 14.730469 36.585938 19.046875 35.464844 23.511719 Z M 35.464844 23.511719 "/></g></g></g><g clip-rule="nonzero" clip-path="url(#dad827eefb)"><g clip-rule="nonzero" clip-path="url(#846012e50a)"><g clip-rule="nonzero" clip-path="url(#15a73b006c)"><path style=" stroke:none;fill-rule:nonzero;fill:#fcfeff;fill-opacity:1;" d="M 48.785156 38.488281 C 47.769531 42.527344 47.941406 42.085938 47.714844 42.140625 L 46.074219 42.550781 L 46.976562 38.945312 Z M 48.785156 38.488281 "/></g></g></g><g clip-rule="nonzero" clip-path="url(#38356ad609)"><g clip-rule="nonzero" clip-path="url(#4e481cbed7)"><g clip-rule="nonzero" clip-path="url(#9d0ea998fa)"><path style=" stroke:none;fill-rule:nonzero;fill:#5ce1e6;fill-opacity:1;" d="M 46.566406 27.058594 C 42.875 23.371094 38.859375 24.714844 35.871094 25.453125 L 36.339844 23.757812 C 36.550781 22.90625 36.652344 22.046875 36.636719 21.171875 C 36.625 20.296875 36.503906 19.4375 36.265625 18.597656 C 36.03125 17.753906 35.691406 16.957031 35.25 16.203125 C 34.804688 15.449219 34.273438 14.761719 33.652344 14.144531 C 33.28125 13.773438 32.835938 13.539062 32.320312 13.433594 C 31.804688 13.332031 31.304688 13.378906 30.816406 13.582031 C 30.332031 13.78125 29.941406 14.097656 29.644531 14.535156 C 29.351562 14.972656 29.203125 15.453125 29.199219 15.980469 C 29.175781 17.835938 30.675781 17.796875 31.304688 20.183594 L 27.503906 23.984375 C 27.335938 24.152344 27.25 24.359375 27.25 24.597656 C 27.25 24.839844 27.335938 25.042969 27.503906 25.214844 C 27.675781 25.382812 27.878906 25.46875 28.117188 25.46875 C 28.359375 25.46875 28.5625 25.382812 28.734375 25.214844 C 31.742188 22.207031 31.46875 22.367188 31.351562 22.839844 L 30.355469 26.835938 C 26.734375 27.742188 24.515625 28.769531 22.027344 27.003906 L 26.273438 22.753906 C 26.445312 22.585938 26.527344 22.378906 26.527344 22.140625 C 26.527344 21.898438 26.445312 21.695312 26.273438 21.523438 C 26.105469 21.355469 25.898438 21.269531 25.660156 21.269531 C 25.417969 21.269531 25.214844 21.355469 25.042969 21.523438 C 19.269531 27.296875 21.355469 25.65625 19.523438 25.679688 C 18.996094 25.679688 18.511719 25.824219 18.070312 26.117188 C 17.628906 26.40625 17.308594 26.796875 17.105469 27.285156 C 16.902344 27.773438 16.851562 28.277344 16.953125 28.792969 C 17.054688 29.3125 17.292969 29.757812 17.667969 30.132812 C 18.28125 30.753906 18.96875 31.285156 19.722656 31.730469 C 20.476562 32.171875 21.273438 32.511719 22.117188 32.746094 C 22.957031 32.980469 23.816406 33.105469 24.691406 33.117188 C 25.566406 33.128906 26.429688 33.03125 27.277344 32.820312 L 28.972656 32.351562 C 28.261719 35.207031 26.796875 39.261719 30.578125 43.042969 C 34.265625 46.734375 38.257812 45.398438 41.269531 44.648438 L 40.796875 46.351562 C 39.476562 51.941406 43.894531 59.238281 47.179688 55.957031 C 47.425781 55.710938 47.613281 55.429688 47.746094 55.109375 C 47.878906 54.789062 47.945312 54.457031 47.945312 54.113281 C 47.945312 53.765625 47.878906 53.433594 47.746094 53.113281 C 47.613281 52.792969 47.425781 52.511719 47.179688 52.265625 C 46.527344 51.601562 46.082031 50.816406 45.839844 49.917969 C 45.882812 49.886719 45.917969 49.851562 45.949219 49.808594 C 49.640625 46.117188 50.457031 45.707031 49.640625 44.890625 C 49.46875 44.71875 49.265625 44.632812 49.023438 44.632812 C 48.785156 44.632812 48.578125 44.71875 48.410156 44.890625 L 45.734375 47.5625 C 45.820312 47.109375 45.5625 48.167969 46.785156 43.265625 C 50.40625 42.363281 52.628906 41.335938 55.117188 43.101562 L 50.867188 47.347656 C 50.699219 47.519531 50.613281 47.722656 50.613281 47.964844 C 50.613281 48.203125 50.699219 48.410156 50.867188 48.578125 C 51.039062 48.746094 51.242188 48.832031 51.484375 48.832031 C 51.722656 48.832031 51.929688 48.746094 52.097656 48.578125 L 56.511719 44.164062 C 56.789062 44.292969 57.082031 44.371094 57.386719 44.398438 C 57.691406 44.425781 57.992188 44.398438 58.285156 44.320312 C 58.582031 44.242188 58.855469 44.117188 59.105469 43.941406 C 59.359375 43.769531 59.570312 43.554688 59.746094 43.304688 C 59.925781 43.054688 60.054688 42.785156 60.132812 42.488281 C 60.214844 42.195312 60.242188 41.894531 60.21875 41.589844 C 60.191406 41.285156 60.117188 40.992188 59.988281 40.714844 C 59.863281 40.4375 59.691406 40.1875 59.476562 39.96875 C 58.859375 39.351562 58.171875 38.820312 57.417969 38.378906 C 56.664062 37.9375 55.867188 37.601562 55.023438 37.363281 C 54.183594 37.128906 53.324219 37.003906 52.449219 36.992188 C 51.578125 36.976562 50.714844 37.074219 49.867188 37.285156 L 48.167969 37.75 C 48.882812 34.898438 50.339844 30.832031 46.566406 27.058594 Z M 18.894531 28.902344 C 18.726562 28.734375 18.640625 28.527344 18.640625 28.289062 C 18.640625 28.046875 18.726562 27.84375 18.898438 27.671875 C 19.066406 27.503906 19.269531 27.417969 19.511719 27.417969 C 19.75 27.417969 19.957031 27.503906 20.125 27.671875 C 23.242188 30.789062 26.582031 29.566406 29.878906 28.742188 L 29.429688 30.421875 C 26.414062 31.222656 22.585938 32.59375 18.894531 28.902344 Z M 38.269531 43.605469 C 37.84375 43.710938 37.410156 43.777344 36.972656 43.800781 C 36.53125 43.824219 36.09375 43.804688 35.660156 43.742188 C 35.222656 43.683594 34.796875 43.578125 34.382812 43.433594 C 33.964844 43.292969 33.566406 43.109375 33.1875 42.886719 C 32.808594 42.667969 32.453125 42.410156 32.121094 42.121094 C 31.789062 41.832031 31.492188 41.511719 31.222656 41.164062 C 30.953125 40.816406 30.71875 40.445312 30.523438 40.050781 C 30.324219 39.660156 30.167969 39.25 30.050781 38.828125 C 29.429688 36.582031 29.753906 36.390625 33.027344 23.28125 C 33.171875 22.695312 33.242188 22.097656 33.238281 21.492188 C 33.230469 20.882812 33.148438 20.289062 32.988281 19.703125 C 32.824219 19.117188 32.59375 18.5625 32.289062 18.039062 C 31.984375 17.515625 31.621094 17.035156 31.191406 16.605469 C 31.023438 16.4375 30.9375 16.230469 30.9375 15.992188 C 30.9375 15.75 31.023438 15.546875 31.191406 15.375 C 31.363281 15.207031 31.566406 15.121094 31.808594 15.121094 C 32.046875 15.121094 32.253906 15.207031 32.421875 15.375 C 32.933594 15.886719 33.367188 16.449219 33.730469 17.074219 C 34.09375 17.695312 34.371094 18.351562 34.566406 19.046875 C 34.757812 19.738281 34.859375 20.445312 34.871094 21.167969 C 34.878906 21.886719 34.796875 22.597656 34.625 23.296875 L 31.597656 35.382812 C 31.367188 36.316406 31.378906 37.246094 31.636719 38.171875 C 31.890625 39.101562 32.359375 39.902344 33.039062 40.585938 C 35.683594 43.230469 38.515625 41.957031 42.167969 41.046875 L 41.726562 42.71875 Z M 37.957031 36.894531 L 43.417969 31.4375 C 44.457031 33.125 43.890625 34.148438 42.648438 39.128906 L 39.972656 39.796875 L 42.261719 37.511719 C 42.429688 37.339844 42.515625 37.136719 42.515625 36.894531 C 42.515625 36.65625 42.429688 36.449219 42.261719 36.28125 C 42.089844 36.113281 41.886719 36.027344 41.644531 36.027344 C 41.40625 36.027344 41.199219 36.113281 41.03125 36.28125 L 36.863281 40.449219 C 36.375 40.445312 35.90625 40.347656 35.457031 40.15625 C 35.007812 39.96875 34.609375 39.703125 34.265625 39.359375 C 33.921875 39.011719 33.652344 38.617188 33.464844 38.167969 C 33.277344 37.714844 33.179688 37.25 33.171875 36.761719 L 37.339844 32.59375 C 37.511719 32.421875 37.597656 32.21875 37.597656 31.976562 C 37.597656 31.738281 37.511719 31.53125 37.339844 31.363281 C 37.171875 31.191406 36.96875 31.109375 36.726562 31.109375 C 36.488281 31.109375 36.28125 31.191406 36.113281 31.363281 L 33.824219 33.648438 L 34.496094 30.976562 C 39.167969 29.808594 40.421875 29.128906 42.1875 30.207031 L 36.726562 35.667969 C 36.558594 35.835938 36.472656 36.039062 36.472656 36.28125 C 36.472656 36.519531 36.558594 36.726562 36.726562 36.894531 C 36.898438 37.066406 37.101562 37.152344 37.339844 37.152344 C 37.582031 37.152344 37.785156 37.066406 37.957031 36.894531 Z M 50.320312 39.003906 C 54.515625 37.960938 58.503906 40.660156 58.492188 41.828125 C 58.484375 42.207031 58.304688 42.46875 57.953125 42.613281 C 57.601562 42.753906 57.289062 42.695312 57.015625 42.429688 C 53.898438 39.3125 50.5625 40.535156 47.265625 41.359375 L 47.714844 39.679688 Z M 44.105469 46.832031 C 43.960938 47.417969 43.890625 48.015625 43.898438 48.621094 C 43.90625 49.226562 43.992188 49.824219 44.152344 50.40625 C 44.316406 50.988281 44.546875 51.542969 44.851562 52.066406 C 45.15625 52.589844 45.523438 53.066406 45.949219 53.496094 C 46.121094 53.667969 46.203125 53.871094 46.203125 54.113281 C 46.203125 54.351562 46.117188 54.554688 45.949219 54.726562 C 45.78125 54.894531 45.574219 54.980469 45.335938 54.980469 C 45.09375 54.980469 44.890625 54.894531 44.71875 54.726562 C 44.210938 54.214844 43.777344 53.648438 43.417969 53.027344 C 43.054688 52.40625 42.777344 51.746094 42.585938 51.054688 C 42.390625 50.359375 42.289062 49.65625 42.277344 48.933594 C 42.269531 48.214844 42.347656 47.507812 42.519531 46.808594 L 45.574219 34.675781 C 45.796875 33.746094 45.78125 32.824219 45.519531 31.902344 C 45.257812 30.984375 44.785156 30.1875 44.105469 29.519531 C 41.460938 26.875 38.609375 28.152344 35.003906 29.027344 L 35.449219 27.351562 L 38.921875 26.488281 C 39.207031 26.414062 39.492188 26.363281 39.785156 26.332031 C 40.074219 26.296875 40.363281 26.28125 40.65625 26.285156 C 40.949219 26.289062 41.242188 26.3125 41.53125 26.355469 C 41.820312 26.394531 42.105469 26.453125 42.386719 26.53125 C 42.667969 26.609375 42.945312 26.707031 43.214844 26.820312 C 43.484375 26.933594 43.746094 27.066406 43.996094 27.210938 C 44.25 27.359375 44.492188 27.523438 44.722656 27.699219 C 44.953125 27.878906 45.175781 28.074219 45.378906 28.277344 C 45.585938 28.484375 45.78125 28.703125 45.957031 28.9375 C 46.136719 29.167969 46.300781 29.410156 46.449219 29.664062 C 46.59375 29.914062 46.726562 30.175781 46.839844 30.445312 C 46.953125 30.714844 47.046875 30.992188 47.125 31.273438 C 47.203125 31.554688 47.265625 31.839844 47.304688 32.128906 C 47.347656 32.417969 47.371094 32.710938 47.375 33.003906 C 47.378906 33.292969 47.363281 33.585938 47.328125 33.875 C 47.296875 34.167969 47.242188 34.453125 47.171875 34.738281 Z M 44.105469 46.832031 "/></g></g></g></g></svg>