<svg xmlns="http://www.w3.org/2000/svg" xmlns:xlink="http://www.w3.org/1999/xlink" width="423" zoomAndPan="magnify" viewBox="0 0 317.25 88.499997" height="118" preserveAspectRatio="xMidYMid meet" version="1.2"><defs><clipPath id="c71299b0e8"><path d="M 27 24 L 41 24 L 41 51 L 27 51 Z M 27 24 "/></clipPath><clipPath id="c71f5cfc6f"><path d="M 5.992188 32.660156 L 31.832031 6.820312 L 57.671875 32.660156 L 31.832031 58.5 Z M 5.992188 32.660156 "/></clipPath><clipPath id="b1e3df019c"><path d="M 5.992188 32.660156 L 31.832031 6.820312 L 57.671875 32.660156 L 31.832031 58.5 Z M 5.992188 32.660156 "/></clipPath><clipPath id="76cdc5cddb"><path d="M 27 25 L 40 25 L 40 51 L 27 51 Z M 27 25 "/></clipPath><clipPath id="8c604663e6"><path d="M 5.992188 32.660156 L 31.832031 6.820312 L 57.671875 32.660156 L 31.832031 58.5 Z M 5.992188 32.660156 "/></clipPath><clipPath id="2f4e70670c"><path d="M 5.992188 32.660156 L 31.832031 6.820312 L 57.671875 32.660156 L 31.832031 58.5 Z M 5.992188 32.660156 "/></clipPath><clipPath id="7711d25740"><path d="M 38 35 L 51 35 L 51 41 L 38 41 Z M 38 35 "/></clipPath><clipPath id="7a27d06d1a"><path d="M 5.992188 32.660156 L 31.832031 6.820312 L 57.671875 32.660156 L 31.832031 58.5 Z M 5.992188 32.660156 "/></clipPath><clipPath id="14177182ac"><path d="M 5.992188 32.660156 L 31.832031 6.820312 L 57.671875 32.660156 L 31.832031 58.5 Z M 5.992188 32.660156 "/></clipPath><clipPath id="b919b8a23d"><path d="M 39 36 L 51 36 L 51 41 L 39 41 Z M 39 36 "/></clipPath><clipPath id="6dda1ff93a"><path d="M 5.992188 32.660156 L 31.832031 6.820312 L 57.671875 32.660156 L 31.832031 58.5 Z M 5.992188 32.660156 "/></clipPath><clipPath id="b7bb81bd79"><path d="M 5.992188 32.660156 L 31.832031 6.820312 L 57.671875 32.660156 L 31.832031 58.5 Z M 5.992188 32.660156 "/></clipPath><clipPath id="d78574c713"><path d="M 13 25 L 26 25 L 26 31 L 13 31 Z M 13 25 "/></clipPath><clipPath id="831868287b"><path d="M 5.992188 32.660156 L 31.832031 6.820312 L 57.671875 32.660156 L 31.832031 58.5 Z M 5.992188 32.660156 "/></clipPath><clipPath id="acefd66baf"><path d="M 5.992188 32.660156 L 31.832031 6.820312 L 57.671875 32.660156 L 31.832031 58.5 Z M 5.992188 32.660156 "/></clipPath><clipPath id="94ee296fc9"><path d="M 14 25 L 26 25 L 26 29 L 14 29 Z M 14 25 "/></clipPath><clipPath id="15ad9a2566"><path d="M 5.992188 32.660156 L 31.832031 6.820312 L 57.671875 32.660156 L 31.832031 58.5 Z M 5.992188 32.660156 "/></clipPath><clipPath id="c70a8e2b04"><path d="M 5.992188 32.660156 L 31.832031 6.820312 L 57.671875 32.660156 L 31.832031 58.5 Z M 5.992188 32.660156 "/></clipPath><clipPath id="dfc16fdbfc"><path d="M 23 14 L 37 14 L 37 42 L 23 42 Z M 23 14 "/></clipPath><clipPath id="49d93ef926"><path d="M 5.992188 32.660156 L 31.832031 6.820312 L 57.671875 32.660156 L 31.832031 58.5 Z M 5.992188 32.660156 "/></clipPath><clipPath id="7ff6dcff1a"><path d="M 5.992188 32.660156 L 31.832031 6.820312 L 57.671875 32.660156 L 31.832031 58.5 Z M 5.992188 32.660156 "/></clipPath><clipPath id="45386c68c5"><path d="M 27 25 L 30 25 L 30 29 L 27 29 Z M 27 25 "/></clipPath><clipPath id="df80fca38f"><path d="M 5.992188 32.660156 L 31.832031 6.820312 L 57.671875 32.660156 L 31.832031 58.5 Z M 5.992188 32.660156 "/></clipPath><clipPath id="c8f0726478"><path d="M 5.992188 32.660156 L 31.832031 6.820312 L 57.671875 32.660156 L 31.832031 58.5 Z M 5.992188 32.660156 "/></clipPath><clipPath id="f7b4595b37"><path d="M 25 14 L 37 14 L 37 41 L 25 41 Z M 25 14 "/></clipPath><clipPath id="01646b8d11"><path d="M 5.992188 32.660156 L 31.832031 6.820312 L 57.671875 32.660156 L 31.832031 58.5 Z M 5.992188 32.660156 "/></clipPath><clipPath id="e9d4838007"><path d="M 5.992188 32.660156 L 31.832031 6.820312 L 57.671875 32.660156 L 31.832031 58.5 Z M 5.992188 32.660156 "/></clipPath><clipPath id="dc84d0ede2"><path d="M 38 35 L 41 35 L 41 40 L 38 40 Z M 38 35 "/></clipPath><clipPath id="82f733449f"><path d="M 5.992188 32.660156 L 31.832031 6.820312 L 57.671875 32.660156 L 31.832031 58.5 Z M 5.992188 32.660156 "/></clipPath><clipPath id="548fdd73ee"><path d="M 5.992188 32.660156 L 31.832031 6.820312 L 57.671875 32.660156 L 31.832031 58.5 Z M 5.992188 32.660156 "/></clipPath><clipPath id="8a22debf76"><path d="M 12 13 L 51 13 L 51 52 L 12 52 Z M 12 13 "/></clipPath><clipPath id="13ebff5609"><path d="M 5.992188 32.660156 L 31.832031 6.820312 L 57.671875 32.660156 L 31.832031 58.5 Z M 5.992188 32.660156 "/></clipPath><clipPath id="bd6f897851"><path d="M 5.992188 32.660156 L 31.832031 6.820312 L 57.671875 32.660156 L 31.832031 58.5 Z M 5.992188 32.660156 "/></clipPath></defs><g id="93f43e5f67"><path style=" stroke:none;fill-rule:nonzero;fill:#fcfeff;fill-opacity:1;" d="M 81.453125 69.777344 L 61.070312 51.835938 C 60.671875 51.488281 60.230469 51.199219 59.761719 50.984375 C 62.882812 46.316406 64.703125 40.710938 64.703125 34.6875 C 64.703125 18.472656 51.515625 5.285156 35.300781 5.285156 C 19.089844 5.285156 5.898438 18.472656 5.898438 34.6875 C 5.898438 50.898438 19.089844 64.089844 35.300781 64.089844 C 41.269531 64.089844 46.824219 62.300781 51.464844 59.234375 C 51.667969 59.675781 51.9375 60.09375 52.269531 60.480469 L 70.03125 80.976562 C 70.90625 81.988281 72.199219 82.566406 73.578125 82.566406 C 74.875 82.566406 76.152344 82.050781 77.078125 81.148438 L 81.476562 76.851562 C 82.472656 75.882812 83.023438 74.523438 82.988281 73.128906 C 82.953125 71.8125 82.410156 70.625 81.453125 69.777344 Z M 9.902344 34.6875 C 9.902344 20.679688 21.296875 9.285156 35.300781 9.285156 C 49.308594 9.285156 60.703125 20.679688 60.703125 34.6875 C 60.703125 48.691406 49.308594 60.085938 35.300781 60.085938 C 21.296875 60.085938 9.902344 48.691406 9.902344 34.6875 Z M 55.230469 56.460938 L 57.007812 54.722656 C 57.164062 54.570312 57.351562 54.496094 57.578125 54.496094 C 57.867188 54.496094 58.179688 54.625 58.429688 54.84375 L 61.929688 57.925781 L 58.367188 61.40625 L 55.292969 57.859375 C 54.960938 57.476562 54.828125 56.855469 55.230469 56.460938 Z M 78.683594 73.988281 L 74.28125 78.28125 C 74.101562 78.460938 73.835938 78.566406 73.578125 78.566406 C 73.421875 78.566406 73.207031 78.527344 73.054688 78.355469 L 60.992188 64.433594 L 64.945312 60.578125 L 78.804688 72.78125 C 78.949219 72.90625 78.984375 73.09375 78.988281 73.230469 C 78.992188 73.507812 78.875 73.800781 78.683594 73.988281 Z M 78.683594 73.988281 "/><path style=" stroke:none;fill-rule:nonzero;fill:#fcfeff;fill-opacity:1;" d="M 55.128906 38.03125 C 54.046875 37.792969 52.980469 38.472656 52.742188 39.554688 C 50.835938 48.167969 42.9375 51.382812 39.628906 52.363281 C 38.570312 52.679688 37.964844 53.792969 38.28125 54.851562 C 38.539062 55.722656 39.335938 56.285156 40.195312 56.285156 C 40.386719 56.285156 40.578125 56.257812 40.765625 56.199219 C 43.308594 55.445312 47.035156 53.929688 50.359375 50.992188 C 53.617188 48.109375 55.734375 44.554688 56.648438 40.417969 C 56.886719 39.339844 56.207031 38.269531 55.128906 38.03125 Z M 55.128906 38.03125 "/><g clip-rule="nonzero" clip-path="url(#c71299b0e8)"><g clip-rule="nonzero" clip-path="url(#c71f5cfc6f)"><g clip-rule="nonzero" clip-path="url(#b1e3df019c)"><path style=" stroke:none;fill-rule:nonzero;fill:#ff7b89;fill-opacity:1;" d="M 38.292969 26.203125 C 41.640625 29.550781 40.109375 32.417969 37.414062 43.164062 C 37.1875 44.082031 37.199219 44.996094 37.453125 45.90625 C 37.703125 46.816406 38.164062 47.605469 38.832031 48.273438 C 38.972656 48.414062 39.085938 48.582031 39.160156 48.765625 C 39.238281 48.953125 39.277344 49.148438 39.277344 49.351562 C 39.277344 49.550781 39.238281 49.746094 39.160156 49.933594 C 39.085938 50.117188 38.972656 50.285156 38.832031 50.425781 C 38.6875 50.570312 38.523438 50.679688 38.335938 50.757812 C 38.152344 50.832031 37.957031 50.871094 37.753906 50.871094 C 37.554688 50.871094 37.359375 50.832031 37.171875 50.757812 C 36.984375 50.679688 36.820312 50.570312 36.679688 50.425781 C 32.910156 46.65625 34.574219 42.691406 35.960938 37.144531 C 37.007812 32.808594 38.25 30.464844 36.140625 28.355469 C 34.03125 26.246094 31.476562 27.503906 27.632812 28.460938 L 28.425781 25.300781 C 31.46875 24.542969 35.09375 23.003906 38.292969 26.203125 Z M 38.292969 26.203125 "/></g></g></g><g clip-rule="nonzero" clip-path="url(#76cdc5cddb)"><g clip-rule="nonzero" clip-path="url(#8c604663e6)"><g clip-rule="nonzero" clip-path="url(#2f4e70670c)"><path style=" stroke:none;fill-rule:nonzero;fill:#ff6077;fill-opacity:1;" d="M 37.214844 27.277344 C 40.566406 30.625 39.03125 33.496094 36.339844 44.242188 C 36.109375 45.15625 36.121094 46.070312 36.375 46.980469 C 36.625 47.890625 37.085938 48.683594 37.753906 49.351562 C 37.945312 49.542969 38.078125 49.769531 38.148438 50.03125 C 38.21875 50.292969 38.21875 50.558594 38.148438 50.820312 C 36.355469 51.265625 33.476562 47.082031 34.550781 42.765625 C 37.414062 31.289062 37.5625 31.488281 37.171875 30.132812 C 37.03125 29.625 36.800781 29.164062 36.480469 28.75 C 36.160156 28.332031 35.773438 27.992188 35.316406 27.726562 C 34.863281 27.464844 34.378906 27.292969 33.855469 27.21875 C 33.335938 27.144531 32.824219 27.167969 32.3125 27.292969 L 27.632812 28.460938 L 28.210938 26.164062 C 30.644531 25.5625 34.109375 24.171875 37.214844 27.277344 Z M 37.214844 27.277344 "/></g></g></g><g clip-rule="nonzero" clip-path="url(#7711d25740)"><g clip-rule="nonzero" clip-path="url(#7a27d06d1a)"><g clip-rule="nonzero" clip-path="url(#14177182ac)"><path style=" stroke:none;fill-rule:nonzero;fill:#7bbeff;fill-opacity:1;" d="M 49.597656 37.507812 C 49.742188 37.648438 49.851562 37.8125 49.929688 38 C 50.003906 38.1875 50.042969 38.382812 50.042969 38.582031 C 50.042969 38.785156 50.003906 38.980469 49.929688 39.164062 C 49.851562 39.351562 49.742188 39.515625 49.597656 39.660156 C 49.457031 39.800781 49.292969 39.914062 49.105469 39.988281 C 48.917969 40.066406 48.722656 40.105469 48.523438 40.105469 C 48.320312 40.105469 48.125 40.066406 47.9375 39.988281 C 47.753906 39.914062 47.585938 39.800781 47.445312 39.660156 C 44.828125 37.042969 42.007812 38.324219 38.402344 39.230469 L 39.191406 36.070312 C 42.273438 35.292969 46.039062 33.949219 49.597656 37.507812 Z M 49.597656 37.507812 "/><path style=" stroke:none;fill-rule:nonzero;fill:#87c4ff;fill-opacity:1;" d="M 49.597656 37.507812 C 49.742188 37.648438 49.851562 37.8125 49.929688 38 C 50.003906 38.1875 50.042969 38.382812 50.042969 38.582031 C 50.042969 38.785156 50.003906 38.980469 49.929688 39.164062 C 49.851562 39.351562 49.742188 39.515625 49.597656 39.660156 C 49.457031 39.800781 49.292969 39.914062 49.105469 39.988281 C 48.917969 40.066406 48.722656 40.105469 48.523438 40.105469 C 48.320312 40.105469 48.125 40.066406 47.9375 39.988281 C 47.753906 39.914062 47.585938 39.800781 47.445312 39.660156 C 44.84375 37.058594 42.035156 38.320312 38.402344 39.230469 L 39.191406 36.070312 C 42.277344 35.289062 46.035156 33.941406 49.597656 37.507812 Z M 49.597656 37.507812 "/></g></g></g><g clip-rule="nonzero" clip-path="url(#b919b8a23d)"><g clip-rule="nonzero" clip-path="url(#6dda1ff93a)"><g clip-rule="nonzero" clip-path="url(#b7bb81bd79)"><path style=" stroke:none;fill-rule:nonzero;fill:#7bbeff;fill-opacity:1;" d="M 49.867188 37.871094 C 49.988281 38.09375 50.046875 38.332031 50.039062 38.582031 C 50.039062 38.890625 49.953125 39.171875 49.78125 39.425781 C 49.613281 39.679688 49.382812 39.867188 49.101562 39.984375 C 48.816406 40.101562 48.523438 40.132812 48.222656 40.074219 C 47.921875 40.011719 47.664062 39.875 47.445312 39.660156 C 46.777344 38.992188 45.988281 38.53125 45.078125 38.28125 C 44.167969 38.027344 43.253906 38.015625 42.335938 38.242188 C 39.617188 38.925781 39.960938 38.894531 40.015625 38.691406 L 40.414062 37.109375 C 43.316406 36.382812 46.449219 35.273438 49.867188 37.871094 Z M 49.867188 37.871094 "/></g></g></g><g clip-rule="nonzero" clip-path="url(#d78574c713)"><g clip-rule="nonzero" clip-path="url(#831868287b)"><g clip-rule="nonzero" clip-path="url(#acefd66baf)"><path style=" stroke:none;fill-rule:nonzero;fill:#ff6077;fill-opacity:1;" d="M 25.265625 26.09375 L 24.472656 29.253906 C 21.703125 29.949219 20.085938 30.574219 17.59375 29.910156 C 15.101562 29.25 12.324219 27.007812 14.207031 25.523438 C 14.355469 25.410156 14.519531 25.328125 14.695312 25.273438 C 14.875 25.21875 15.054688 25.199219 15.242188 25.210938 C 15.425781 25.222656 15.605469 25.269531 15.773438 25.347656 C 15.941406 25.425781 16.089844 25.53125 16.222656 25.664062 C 18.835938 28.28125 21.660156 27 25.265625 26.09375 Z M 25.265625 26.09375 "/></g></g></g><g clip-rule="nonzero" clip-path="url(#94ee296fc9)"><g clip-rule="nonzero" clip-path="url(#15ad9a2566)"><g clip-rule="nonzero" clip-path="url(#c70a8e2b04)"><path style=" stroke:none;fill-rule:nonzero;fill:#ff7b89;fill-opacity:1;" d="M 25.265625 26.09375 L 24.867188 27.675781 L 22.277344 28.316406 C 18.214844 29.34375 14.546875 26.789062 14.207031 25.523438 C 14.355469 25.410156 14.519531 25.328125 14.695312 25.273438 C 14.875 25.21875 15.054688 25.199219 15.242188 25.210938 C 15.425781 25.222656 15.605469 25.269531 15.773438 25.347656 C 15.941406 25.425781 16.089844 25.53125 16.222656 25.664062 C 18.835938 28.28125 21.660156 27 25.265625 26.09375 Z M 25.265625 26.09375 "/></g></g></g><g clip-rule="nonzero" clip-path="url(#dfc16fdbfc)"><g clip-rule="nonzero" clip-path="url(#49d93ef926)"><g clip-rule="nonzero" clip-path="url(#7ff6dcff1a)"><path style=" stroke:none;fill-rule:nonzero;fill:#7bbeff;fill-opacity:1;" d="M 26.988281 14.894531 C 27.480469 15.386719 27.902344 15.933594 28.253906 16.535156 C 28.605469 17.136719 28.875 17.773438 29.0625 18.445312 C 29.246094 19.117188 29.34375 19.800781 29.355469 20.496094 C 29.363281 21.195312 29.285156 21.882812 29.113281 22.558594 C 26.429688 33.265625 25.410156 34.851562 27.527344 36.96875 C 28.027344 37.46875 28.617188 37.8125 29.300781 38.003906 C 29.984375 38.191406 30.667969 38.199219 31.355469 38.027344 L 36.03125 36.859375 L 35.277344 39.875 C 35.226562 40.078125 35.628906 39.921875 31.757812 40.886719 C 31.335938 40.992188 30.910156 41.058594 30.476562 41.078125 C 30.042969 41.101562 29.609375 41.082031 29.179688 41.023438 C 28.75 40.960938 28.328125 40.859375 27.917969 40.71875 C 27.507812 40.574219 27.117188 40.394531 26.742188 40.175781 C 26.367188 39.957031 26.015625 39.703125 25.691406 39.417969 C 25.363281 39.128906 25.066406 38.816406 24.804688 38.46875 C 24.539062 38.125 24.308594 37.761719 24.113281 37.371094 C 23.921875 36.984375 23.765625 36.578125 23.652344 36.160156 C 23.042969 33.96875 23.382812 33.628906 26.25 22.160156 C 26.511719 21.097656 26.457031 20.054688 26.089844 19.023438 C 25.449219 17.222656 24.378906 17.085938 24.394531 15.972656 C 24.394531 15.664062 24.480469 15.386719 24.652344 15.128906 C 24.820312 14.875 25.050781 14.6875 25.332031 14.570312 C 25.617188 14.453125 25.910156 14.425781 26.210938 14.484375 C 26.511719 14.542969 26.769531 14.679688 26.988281 14.894531 Z M 26.988281 14.894531 "/></g></g></g><g clip-rule="nonzero" clip-path="url(#45386c68c5)"><g clip-rule="nonzero" clip-path="url(#df80fca38f)"><g clip-rule="nonzero" clip-path="url(#c8f0726478)"><path style=" stroke:none;fill-rule:nonzero;fill:#ff6077;fill-opacity:1;" d="M 29.574219 25.015625 L 28.78125 28.175781 L 27.632812 28.460938 L 28.425781 25.300781 Z M 29.574219 25.015625 "/></g></g></g><g clip-rule="nonzero" clip-path="url(#f7b4595b37)"><g clip-rule="nonzero" clip-path="url(#01646b8d11)"><g clip-rule="nonzero" clip-path="url(#e9d4838007)"><path style=" stroke:none;fill-rule:nonzero;fill:#87c4ff;fill-opacity:1;" d="M 29.113281 22.558594 C 26.429688 33.265625 25.410156 34.851562 27.527344 36.96875 C 28.027344 37.46875 28.617188 37.8125 29.300781 38.003906 C 29.984375 38.191406 30.667969 38.199219 31.355469 38.027344 L 36.03125 36.859375 L 35.277344 39.875 C 33.019531 40.433594 29.910156 41.507812 26.988281 38.582031 C 26.578125 38.171875 26.226562 37.714844 25.9375 37.214844 C 25.644531 36.710938 25.421875 36.183594 25.265625 35.621094 C 25.113281 35.0625 25.03125 34.492188 25.023438 33.914062 C 25.015625 33.332031 25.082031 32.761719 25.222656 32.199219 C 27.8125 21.792969 29.253906 19.316406 26.449219 16.511719 C 26.316406 16.382812 26.210938 16.230469 26.132812 16.0625 C 26.058594 15.894531 26.011719 15.714844 26 15.53125 C 25.984375 15.34375 26.007812 15.164062 26.058594 14.984375 C 26.113281 14.808594 26.195312 14.644531 26.308594 14.496094 C 27.714844 14.871094 30.09375 18.648438 29.113281 22.558594 Z M 29.113281 22.558594 "/></g></g></g><g clip-rule="nonzero" clip-path="url(#dc84d0ede2)"><g clip-rule="nonzero" clip-path="url(#82f733449f)"><g clip-rule="nonzero" clip-path="url(#548fdd73ee)"><path style=" stroke:none;fill-rule:nonzero;fill:#7bbeff;fill-opacity:1;" d="M 40.773438 35.671875 C 39.886719 39.207031 40.039062 38.820312 39.839844 38.867188 L 38.402344 39.230469 L 39.191406 36.070312 Z M 40.773438 35.671875 "/></g></g></g><g clip-rule="nonzero" clip-path="url(#8a22debf76)"><g clip-rule="nonzero" clip-path="url(#13ebff5609)"><g clip-rule="nonzero" clip-path="url(#bd6f897851)"><path style=" stroke:none;fill-rule:nonzero;fill:#ffffff;fill-opacity:1;" d="M 38.832031 25.664062 C 35.601562 22.433594 32.085938 23.613281 29.46875 24.257812 L 29.878906 22.773438 C 30.0625 22.027344 30.152344 21.273438 30.140625 20.507812 C 30.128906 19.742188 30.019531 18.992188 29.816406 18.253906 C 29.609375 17.515625 29.3125 16.816406 28.925781 16.15625 C 28.535156 15.496094 28.070312 14.898438 27.527344 14.359375 C 27.199219 14.03125 26.8125 13.824219 26.359375 13.734375 C 25.910156 13.644531 25.46875 13.6875 25.042969 13.863281 C 24.617188 14.039062 24.277344 14.316406 24.019531 14.699219 C 23.761719 15.082031 23.632812 15.5 23.628906 15.960938 C 23.609375 17.589844 24.921875 17.554688 25.46875 19.644531 L 22.144531 22.972656 C 21.996094 23.121094 21.921875 23.300781 21.921875 23.507812 C 21.921875 23.71875 21.996094 23.898438 22.144531 24.046875 C 22.292969 24.195312 22.472656 24.269531 22.679688 24.269531 C 22.890625 24.269531 23.070312 24.195312 23.21875 24.046875 C 25.851562 21.414062 25.617188 21.554688 25.511719 21.96875 L 24.640625 25.46875 C 21.46875 26.261719 19.527344 27.160156 17.347656 25.613281 L 21.066406 21.894531 C 21.214844 21.746094 21.289062 21.566406 21.289062 21.355469 C 21.289062 21.144531 21.214844 20.964844 21.066406 20.816406 C 20.917969 20.667969 20.738281 20.59375 20.527344 20.59375 C 20.316406 20.59375 20.136719 20.667969 19.988281 20.816406 C 14.933594 25.871094 16.761719 24.4375 15.15625 24.457031 C 14.691406 24.457031 14.269531 24.582031 13.882812 24.835938 C 13.5 25.09375 13.214844 25.433594 13.039062 25.863281 C 12.859375 26.289062 12.816406 26.730469 12.90625 27.183594 C 12.996094 27.636719 13.203125 28.027344 13.53125 28.355469 C 14.070312 28.898438 14.667969 29.363281 15.328125 29.753906 C 15.988281 30.140625 16.6875 30.4375 17.425781 30.644531 C 18.164062 30.847656 18.914062 30.957031 19.679688 30.96875 C 20.445312 30.980469 21.199219 30.890625 21.945312 30.707031 L 23.429688 30.296875 C 22.804688 32.796875 21.523438 36.347656 24.835938 39.660156 C 28.066406 42.890625 31.558594 41.722656 34.195312 41.066406 L 33.78125 42.554688 C 32.625 47.449219 36.496094 53.839844 39.371094 50.964844 C 39.585938 50.75 39.75 50.503906 39.863281 50.222656 C 39.980469 49.945312 40.039062 49.652344 40.039062 49.351562 C 40.039062 49.046875 39.980469 48.753906 39.863281 48.476562 C 39.75 48.195312 39.585938 47.949219 39.371094 47.734375 C 38.800781 47.152344 38.410156 46.464844 38.195312 45.679688 C 38.234375 45.652344 38.265625 45.617188 38.292969 45.582031 C 41.523438 42.351562 42.238281 41.992188 41.523438 41.273438 C 41.375 41.125 41.195312 41.050781 40.984375 41.050781 C 40.773438 41.050781 40.59375 41.125 40.445312 41.273438 L 38.105469 43.617188 C 38.179688 43.21875 37.953125 44.144531 39.027344 39.855469 C 42.195312 39.0625 44.140625 38.164062 46.320312 39.707031 L 42.601562 43.429688 C 42.453125 43.578125 42.378906 43.757812 42.378906 43.964844 C 42.378906 44.175781 42.453125 44.355469 42.601562 44.503906 C 42.75 44.652344 42.929688 44.726562 43.136719 44.726562 C 43.347656 44.726562 43.527344 44.652344 43.675781 44.503906 L 47.542969 40.640625 C 47.785156 40.753906 48.039062 40.820312 48.304688 40.84375 C 48.574219 40.871094 48.835938 40.847656 49.09375 40.777344 C 49.351562 40.710938 49.59375 40.597656 49.8125 40.445312 C 50.03125 40.292969 50.21875 40.105469 50.375 39.890625 C 50.527344 39.671875 50.640625 39.429688 50.710938 39.171875 C 50.78125 38.914062 50.808594 38.652344 50.785156 38.386719 C 50.765625 38.117188 50.699219 37.863281 50.585938 37.621094 C 50.472656 37.375 50.324219 37.160156 50.136719 36.96875 C 49.597656 36.425781 48.996094 35.960938 48.335938 35.574219 C 47.675781 35.191406 46.976562 34.894531 46.238281 34.6875 C 45.5 34.480469 44.75 34.371094 43.984375 34.359375 C 43.21875 34.347656 42.464844 34.433594 41.722656 34.617188 L 40.238281 35.023438 C 40.859375 32.527344 42.136719 28.96875 38.832031 25.664062 Z M 14.605469 27.277344 C 14.457031 27.128906 14.382812 26.949219 14.382812 26.738281 C 14.382812 26.53125 14.457031 26.351562 14.605469 26.203125 C 14.753906 26.054688 14.933594 25.980469 15.144531 25.980469 C 15.355469 25.980469 15.535156 26.054688 15.683594 26.203125 C 18.414062 28.929688 21.335938 27.859375 24.222656 27.136719 L 23.828125 28.609375 C 21.191406 29.308594 17.835938 30.507812 14.605469 27.277344 Z M 31.570312 40.148438 C 31.195312 40.242188 30.816406 40.300781 30.433594 40.320312 C 30.046875 40.34375 29.664062 40.324219 29.285156 40.273438 C 28.902344 40.21875 28.527344 40.128906 28.164062 40.003906 C 27.800781 39.875 27.453125 39.714844 27.121094 39.523438 C 26.785156 39.328125 26.476562 39.105469 26.1875 38.851562 C 25.894531 38.597656 25.632812 38.316406 25.398438 38.011719 C 25.164062 37.707031 24.957031 37.382812 24.785156 37.039062 C 24.613281 36.695312 24.476562 36.335938 24.371094 35.964844 C 23.828125 34 24.113281 33.835938 26.976562 22.359375 C 27.242188 21.308594 27.230469 20.265625 26.945312 19.222656 C 26.65625 18.183594 26.132812 17.277344 25.375 16.511719 C 25.226562 16.363281 25.148438 16.183594 25.148438 15.972656 C 25.148438 15.761719 25.226562 15.582031 25.375 15.433594 C 25.523438 15.285156 25.703125 15.210938 25.910156 15.210938 C 26.121094 15.210938 26.300781 15.285156 26.449219 15.433594 C 26.894531 15.878906 27.277344 16.375 27.597656 16.917969 C 27.914062 17.464844 28.15625 18.039062 28.324219 18.648438 C 28.496094 19.253906 28.582031 19.875 28.59375 20.503906 C 28.601562 21.136719 28.53125 21.757812 28.378906 22.367188 L 25.730469 32.953125 C 25.527344 33.769531 25.535156 34.582031 25.761719 35.394531 C 25.984375 36.207031 26.394531 36.910156 26.988281 37.507812 C 29.304688 39.820312 31.785156 38.707031 34.984375 37.910156 L 34.59375 39.375 Z M 31.296875 34.277344 L 36.074219 29.496094 C 36.984375 30.976562 36.488281 31.871094 35.402344 36.230469 L 33.0625 36.816406 L 35.0625 34.816406 C 35.210938 34.667969 35.285156 34.488281 35.285156 34.277344 C 35.285156 34.066406 35.210938 33.886719 35.0625 33.738281 C 34.914062 33.589844 34.734375 33.515625 34.523438 33.515625 C 34.316406 33.515625 34.136719 33.589844 33.988281 33.738281 L 30.335938 37.386719 C 29.910156 37.382812 29.5 37.296875 29.105469 37.132812 C 28.710938 36.96875 28.363281 36.734375 28.0625 36.429688 C 27.761719 36.128906 27.527344 35.78125 27.363281 35.386719 C 27.195312 34.996094 27.113281 34.585938 27.105469 34.15625 L 30.757812 30.507812 C 30.90625 30.359375 30.980469 30.179688 30.980469 29.96875 C 30.980469 29.757812 30.90625 29.578125 30.757812 29.429688 C 30.609375 29.28125 30.429688 29.207031 30.21875 29.207031 C 30.007812 29.207031 29.828125 29.28125 29.679688 29.429688 L 27.675781 31.433594 L 28.265625 29.09375 C 32.355469 28.070312 33.453125 27.476562 35 28.417969 L 30.21875 33.199219 C 30.070312 33.347656 29.996094 33.527344 29.996094 33.738281 C 29.996094 33.949219 30.070312 34.128906 30.21875 34.277344 C 30.367188 34.425781 30.546875 34.5 30.757812 34.5 C 30.96875 34.5 31.144531 34.425781 31.296875 34.277344 Z M 42.121094 36.121094 C 45.792969 35.207031 49.285156 37.570312 49.277344 38.59375 C 49.265625 38.925781 49.109375 39.15625 48.800781 39.28125 C 48.496094 39.40625 48.222656 39.351562 47.984375 39.121094 C 45.253906 36.390625 42.332031 37.464844 39.445312 38.183594 L 39.839844 36.714844 Z M 36.679688 42.976562 C 36.417969 44.023438 36.433594 45.066406 36.71875 46.105469 C 37.007812 47.144531 37.53125 48.046875 38.292969 48.8125 C 38.441406 48.960938 38.515625 49.140625 38.515625 49.351562 C 38.515625 49.558594 38.441406 49.738281 38.292969 49.886719 C 38.144531 50.035156 37.964844 50.109375 37.753906 50.109375 C 37.542969 50.109375 37.367188 50.035156 37.214844 49.886719 C 36.773438 49.441406 36.390625 48.945312 36.074219 48.402344 C 35.757812 47.855469 35.515625 47.28125 35.347656 46.671875 C 35.179688 46.066406 35.089844 45.449219 35.078125 44.816406 C 35.070312 44.1875 35.140625 43.566406 35.289062 42.953125 L 37.964844 32.332031 C 38.160156 31.519531 38.144531 30.710938 37.914062 29.90625 C 37.6875 29.101562 37.273438 28.402344 36.679688 27.816406 C 34.363281 25.5 31.867188 26.621094 28.710938 27.386719 L 29.097656 25.921875 L 32.140625 25.164062 C 32.386719 25.101562 32.640625 25.054688 32.894531 25.027344 C 33.148438 24.996094 33.402344 24.984375 33.660156 24.988281 C 33.914062 24.988281 34.171875 25.007812 34.425781 25.046875 C 34.675781 25.082031 34.925781 25.132812 35.175781 25.203125 C 35.421875 25.269531 35.664062 25.355469 35.898438 25.453125 C 36.132812 25.554688 36.363281 25.667969 36.582031 25.796875 C 36.804688 25.925781 37.015625 26.070312 37.21875 26.226562 C 37.421875 26.382812 37.613281 26.550781 37.796875 26.730469 C 37.976562 26.914062 38.144531 27.105469 38.300781 27.308594 C 38.457031 27.511719 38.601562 27.722656 38.730469 27.945312 C 38.859375 28.164062 38.972656 28.394531 39.070312 28.628906 C 39.171875 28.863281 39.253906 29.105469 39.324219 29.351562 C 39.390625 29.597656 39.445312 29.847656 39.480469 30.101562 C 39.515625 30.355469 39.539062 30.609375 39.539062 30.867188 C 39.542969 31.125 39.53125 31.378906 39.5 31.632812 C 39.472656 31.886719 39.425781 32.136719 39.363281 32.386719 Z M 36.679688 42.976562 "/></g></g></g><g style="fill:#fcfeff;fill-opacity:1;"><g transform="translate(67.460326, 52.879324)"><path style="stroke:none" d="M 0.421875 -19.21875 L 0.421875 -19.921875 L 9 -19.921875 L 15.5 -6.265625 L 21.875 -19.921875 L 30.203125 -19.921875 L 30.203125 -19.21875 C 29.347656 -19.21875 28.703125 -19.15625 28.265625 -19.03125 C 27.835938 -18.914062 27.550781 -18.671875 27.40625 -18.296875 C 27.269531 -17.929688 27.203125 -17.367188 27.203125 -16.609375 L 27.203125 -3.3125 C 27.203125 -2.570312 27.269531 -2.007812 27.40625 -1.625 C 27.550781 -1.238281 27.835938 -0.984375 28.265625 -0.859375 C 28.703125 -0.742188 29.347656 -0.6875 30.203125 -0.6875 L 30.203125 0 L 18.859375 0 L 18.859375 -0.6875 C 19.722656 -0.6875 20.367188 -0.742188 20.796875 -0.859375 C 21.234375 -0.984375 21.519531 -1.238281 21.65625 -1.625 C 21.800781 -2.007812 21.875 -2.570312 21.875 -3.3125 L 21.875 -17.546875 L 13.421875 0 L 12.578125 0 L 4.125 -17.546875 L 4.125 -3.3125 C 4.125 -2.570312 4.191406 -2.007812 4.328125 -1.625 C 4.472656 -1.238281 4.757812 -0.984375 5.1875 -0.859375 C 5.625 -0.742188 6.269531 -0.6875 7.125 -0.6875 L 7.125 0 L 0.421875 0 L 0.421875 -0.6875 C 1.285156 -0.6875 1.929688 -0.742188 2.359375 -0.859375 C 2.796875 -0.984375 3.082031 -1.238281 3.21875 -1.625 C 3.363281 -2.007812 3.4375 -2.570312 3.4375 -3.3125 L 3.4375 -16.609375 C 3.4375 -17.367188 3.363281 -17.929688 3.21875 -18.296875 C 3.082031 -18.671875 2.796875 -18.914062 2.359375 -19.03125 C 1.929688 -19.15625 1.285156 -19.21875 0.421875 -19.21875 Z M 0.421875 -19.21875 "/></g></g><g style="fill:#fcfeff;fill-opacity:1;"><g transform="translate(98.090283, 52.879324)"><path style="stroke:none" d="M 0.421875 0 L 0.421875 -0.6875 C 1.285156 -0.6875 1.929688 -0.742188 2.359375 -0.859375 C 2.796875 -0.984375 3.082031 -1.238281 3.21875 -1.625 C 3.363281 -2.007812 3.4375 -2.570312 3.4375 -3.3125 L 3.4375 -16.609375 C 3.4375 -17.367188 3.363281 -17.929688 3.21875 -18.296875 C 3.082031 -18.671875 2.796875 -18.914062 2.359375 -19.03125 C 1.929688 -19.15625 1.285156 -19.21875 0.421875 -19.21875 L 0.421875 -19.921875 L 8.71875 -19.921875 L 18.828125 -6.4375 L 18.828125 -16.609375 C 18.828125 -17.367188 18.757812 -17.929688 18.625 -18.296875 C 18.5 -18.671875 18.25 -18.914062 17.875 -19.03125 C 17.507812 -19.15625 16.96875 -19.21875 16.25 -19.21875 L 15.984375 -19.21875 L 15.984375 -19.921875 L 22.53125 -19.921875 L 22.53125 -19.21875 C 21.675781 -19.21875 21.03125 -19.15625 20.59375 -19.03125 C 20.164062 -18.914062 19.878906 -18.671875 19.734375 -18.296875 C 19.597656 -17.929688 19.53125 -17.367188 19.53125 -16.609375 L 19.53125 0 L 17 0 L 4.125 -17.1875 L 4.125 -3.3125 C 4.125 -2.570312 4.191406 -2.007812 4.328125 -1.625 C 4.472656 -1.238281 4.757812 -0.984375 5.1875 -0.859375 C 5.625 -0.742188 6.269531 -0.6875 7.125 -0.6875 L 7.125 0 Z M 0.421875 0 "/></g></g><g style="fill:#fcfeff;fill-opacity:1;"><g transform="translate(121.047706, 52.879324)"><path style="stroke:none" d="M 0.421875 -19.21875 L 0.421875 -19.921875 L 11.765625 -19.921875 L 11.765625 -19.21875 C 10.898438 -19.21875 10.25 -19.15625 9.8125 -19.03125 C 9.382812 -18.914062 9.097656 -18.671875 8.953125 -18.296875 C 8.816406 -17.929688 8.75 -17.367188 8.75 -16.609375 L 8.75 -3.3125 C 8.75 -2.570312 8.816406 -2.007812 8.953125 -1.625 C 9.097656 -1.238281 9.382812 -0.984375 9.8125 -0.859375 C 10.25 -0.742188 10.898438 -0.6875 11.765625 -0.6875 L 11.765625 0 L 0.421875 0 L 0.421875 -0.6875 C 1.285156 -0.6875 1.929688 -0.742188 2.359375 -0.859375 C 2.796875 -0.984375 3.082031 -1.238281 3.21875 -1.625 C 3.363281 -2.007812 3.4375 -2.570312 3.4375 -3.3125 L 3.4375 -16.609375 C 3.4375 -17.367188 3.363281 -17.929688 3.21875 -18.296875 C 3.082031 -18.671875 2.796875 -18.914062 2.359375 -19.03125 C 1.929688 -19.15625 1.285156 -19.21875 0.421875 -19.21875 Z M 0.421875 -19.21875 "/></g></g><g style="fill:#fcfeff;fill-opacity:1;"><g transform="translate(132.75201, 52.879324)"><path style="stroke:none" d="M 0.90625 -9.953125 C 0.90625 -11.835938 1.253906 -13.550781 1.953125 -15.09375 C 2.660156 -16.644531 3.695312 -17.875 5.0625 -18.78125 C 6.4375 -19.695312 8.117188 -20.15625 10.109375 -20.15625 C 11.109375 -20.15625 11.957031 -20.054688 12.65625 -19.859375 C 13.363281 -19.660156 13.984375 -19.453125 14.515625 -19.234375 C 15.046875 -19.023438 15.535156 -18.921875 15.984375 -18.921875 C 16.273438 -18.921875 16.53125 -18.988281 16.75 -19.125 C 16.976562 -19.269531 17.234375 -19.535156 17.515625 -19.921875 L 18.203125 -19.921875 L 18.203125 -13.03125 L 17.515625 -13.03125 C 16.828125 -15.070312 15.9375 -16.65625 14.84375 -17.78125 C 13.75 -18.90625 12.550781 -19.46875 11.25 -19.46875 C 9.726562 -19.46875 8.5625 -18.65625 7.75 -17.03125 C 6.9375 -15.40625 6.53125 -13.046875 6.53125 -9.953125 C 6.53125 -6.910156 6.921875 -4.566406 7.703125 -2.921875 C 8.484375 -1.273438 9.609375 -0.453125 11.078125 -0.453125 C 11.429688 -0.453125 11.789062 -0.5 12.15625 -0.59375 C 12.519531 -0.695312 12.878906 -0.835938 13.234375 -1.015625 L 13.234375 -7.015625 C 13.234375 -7.890625 13.109375 -8.5 12.859375 -8.84375 C 12.609375 -9.1875 12.15625 -9.378906 11.5 -9.421875 L 10.828125 -9.421875 L 10.828125 -10.109375 L 20.3125 -10.109375 L 20.3125 -9.421875 C 19.75 -9.421875 19.3125 -9.195312 19 -8.75 C 18.6875 -8.3125 18.46875 -7.738281 18.34375 -7.03125 C 18.226562 -6.332031 18.171875 -5.585938 18.171875 -4.796875 C 18.171875 -4.003906 18.203125 -3.25 18.265625 -2.53125 C 18.328125 -1.820312 18.390625 -1.234375 18.453125 -0.765625 C 18.523438 -0.296875 18.5625 -0.0390625 18.5625 0 L 17.90625 0.234375 C 17.644531 -0.0546875 17.347656 -0.328125 17.015625 -0.578125 C 16.679688 -0.835938 16.253906 -0.96875 15.734375 -0.96875 C 15.234375 -0.96875 14.726562 -0.863281 14.21875 -0.65625 C 13.707031 -0.457031 13.125 -0.257812 12.46875 -0.0625 C 11.820312 0.132812 11.023438 0.234375 10.078125 0.234375 C 8.253906 0.234375 6.648438 -0.179688 5.265625 -1.015625 C 3.878906 -1.859375 2.804688 -3.046875 2.046875 -4.578125 C 1.285156 -6.117188 0.90625 -7.910156 0.90625 -9.953125 Z M 0.90625 -9.953125 "/></g></g><g style="fill:#fcfeff;fill-opacity:1;"><g transform="translate(153.242191, 52.879324)"><path style="stroke:none" d="M 3.4375 -16.609375 C 3.4375 -17.367188 3.363281 -17.929688 3.21875 -18.296875 C 3.082031 -18.671875 2.796875 -18.914062 2.359375 -19.03125 C 1.929688 -19.15625 1.285156 -19.21875 0.421875 -19.21875 L 0.421875 -19.921875 L 18 -19.921875 L 18.828125 -13.125 L 18.140625 -13.125 C 17.398438 -15.320312 16.539062 -16.882812 15.5625 -17.8125 C 14.59375 -18.75 13.304688 -19.21875 11.703125 -19.21875 C 10.640625 -19.21875 9.878906 -19.015625 9.421875 -18.609375 C 8.972656 -18.203125 8.75 -17.535156 8.75 -16.609375 L 8.75 -10.109375 C 10.257812 -10.109375 11.460938 -10.457031 12.359375 -11.15625 C 13.265625 -11.863281 13.878906 -13.007812 14.203125 -14.59375 L 14.890625 -14.59375 L 14.890625 -4.9375 L 14.203125 -4.9375 C 13.878906 -6.539062 13.265625 -7.6875 12.359375 -8.375 C 11.460938 -9.070312 10.257812 -9.421875 8.75 -9.421875 L 8.75 -3.3125 C 8.75 -2.382812 8.984375 -1.710938 9.453125 -1.296875 C 9.929688 -0.890625 10.769531 -0.6875 11.96875 -0.6875 C 13.175781 -0.6875 14.195312 -0.890625 15.03125 -1.296875 C 15.863281 -1.710938 16.578125 -2.367188 17.171875 -3.265625 C 17.773438 -4.160156 18.320312 -5.335938 18.8125 -6.796875 L 19.5 -6.796875 L 18.65625 0 L 0.421875 0 L 0.421875 -0.6875 C 1.285156 -0.6875 1.929688 -0.742188 2.359375 -0.859375 C 2.796875 -0.984375 3.082031 -1.238281 3.21875 -1.625 C 3.363281 -2.007812 3.4375 -2.570312 3.4375 -3.3125 Z M 3.4375 -16.609375 "/></g></g><g style="fill:#fcfeff;fill-opacity:1;"><g transform="translate(173.100508, 52.879324)"><path style="stroke:none" d="M 0.421875 0 L 0.421875 -0.6875 C 1.285156 -0.6875 1.929688 -0.742188 2.359375 -0.859375 C 2.796875 -0.984375 3.082031 -1.238281 3.21875 -1.625 C 3.363281 -2.007812 3.4375 -2.570312 3.4375 -3.3125 L 3.4375 -16.609375 C 3.4375 -17.367188 3.363281 -17.929688 3.21875 -18.296875 C 3.082031 -18.671875 2.796875 -18.914062 2.359375 -19.03125 C 1.929688 -19.15625 1.285156 -19.21875 0.421875 -19.21875 L 0.421875 -19.921875 L 8.71875 -19.921875 L 18.828125 -6.4375 L 18.828125 -16.609375 C 18.828125 -17.367188 18.757812 -17.929688 18.625 -18.296875 C 18.5 -18.671875 18.25 -18.914062 17.875 -19.03125 C 17.507812 -19.15625 16.96875 -19.21875 16.25 -19.21875 L 15.984375 -19.21875 L 15.984375 -19.921875 L 22.53125 -19.921875 L 22.53125 -19.21875 C 21.675781 -19.21875 21.03125 -19.15625 20.59375 -19.03125 C 20.164062 -18.914062 19.878906 -18.671875 19.734375 -18.296875 C 19.597656 -17.929688 19.53125 -17.367188 19.53125 -16.609375 L 19.53125 0 L 17 0 L 4.125 -17.1875 L 4.125 -3.3125 C 4.125 -2.570312 4.191406 -2.007812 4.328125 -1.625 C 4.472656 -1.238281 4.757812 -0.984375 5.1875 -0.859375 C 5.625 -0.742188 6.269531 -0.6875 7.125 -0.6875 L 7.125 0 Z M 0.421875 0 "/></g></g><g style="fill:#fcfeff;fill-opacity:1;"><g transform="translate(196.057931, 52.879324)"><path style="stroke:none" d="M 0.421875 0 L 0.421875 -0.6875 C 1.285156 -0.6875 1.929688 -0.742188 2.359375 -0.859375 C 2.796875 -0.984375 3.082031 -1.238281 3.21875 -1.625 C 3.363281 -2.007812 3.4375 -2.570312 3.4375 -3.3125 L 3.4375 -16.609375 C 3.4375 -17.367188 3.363281 -17.929688 3.21875 -18.296875 C 3.082031 -18.671875 2.796875 -18.914062 2.359375 -19.03125 C 1.929688 -19.15625 1.285156 -19.21875 0.421875 -19.21875 L 0.421875 -19.921875 L 11.53125 -19.921875 C 14.15625 -19.921875 16.175781 -19.484375 17.59375 -18.609375 C 19.019531 -17.734375 19.734375 -16.484375 19.734375 -14.859375 C 19.734375 -12.578125 18.078125 -11.070312 14.765625 -10.34375 C 16.617188 -10.25 18.035156 -9.785156 19.015625 -8.953125 C 19.992188 -8.117188 20.484375 -6.957031 20.484375 -5.46875 C 20.484375 -3.707031 19.753906 -2.351562 18.296875 -1.40625 C 16.847656 -0.46875 14.78125 0 12.09375 0 Z M 8.75 -2.953125 C 8.75 -2.066406 8.863281 -1.46875 9.09375 -1.15625 C 9.332031 -0.84375 9.757812 -0.6875 10.375 -0.6875 L 11.53125 -0.6875 C 12.144531 -0.6875 12.703125 -0.890625 13.203125 -1.296875 C 13.703125 -1.710938 14.101562 -2.265625 14.40625 -2.953125 C 14.707031 -3.648438 14.859375 -4.421875 14.859375 -5.265625 C 14.859375 -6.128906 14.707031 -6.90625 14.40625 -7.59375 C 14.101562 -8.289062 13.703125 -8.847656 13.203125 -9.265625 C 12.703125 -9.691406 12.144531 -9.90625 11.53125 -9.90625 L 8.75 -9.90625 Z M 8.75 -19.21875 L 8.75 -10.59375 L 10.953125 -10.59375 C 11.878906 -10.59375 12.632812 -11 13.21875 -11.8125 C 13.8125 -12.625 14.109375 -13.640625 14.109375 -14.859375 C 14.109375 -16.109375 13.8125 -17.144531 13.21875 -17.96875 C 12.632812 -18.800781 11.878906 -19.21875 10.953125 -19.21875 Z M 8.75 -19.21875 "/></g></g><g style="fill:#fcfeff;fill-opacity:1;"><g transform="translate(216.668418, 52.879324)"><path style="stroke:none" d="M 3.4375 -16.609375 C 3.4375 -17.367188 3.363281 -17.929688 3.21875 -18.296875 C 3.082031 -18.671875 2.796875 -18.914062 2.359375 -19.03125 C 1.929688 -19.15625 1.285156 -19.21875 0.421875 -19.21875 L 0.421875 -19.921875 L 18 -19.921875 L 18.828125 -13.125 L 18.140625 -13.125 C 17.398438 -15.320312 16.539062 -16.882812 15.5625 -17.8125 C 14.59375 -18.75 13.304688 -19.21875 11.703125 -19.21875 C 10.640625 -19.21875 9.878906 -19.015625 9.421875 -18.609375 C 8.972656 -18.203125 8.75 -17.535156 8.75 -16.609375 L 8.75 -10.109375 C 10.257812 -10.109375 11.460938 -10.457031 12.359375 -11.15625 C 13.265625 -11.863281 13.878906 -13.007812 14.203125 -14.59375 L 14.890625 -14.59375 L 14.890625 -4.9375 L 14.203125 -4.9375 C 13.878906 -6.539062 13.265625 -7.6875 12.359375 -8.375 C 11.460938 -9.070312 10.257812 -9.421875 8.75 -9.421875 L 8.75 -3.3125 C 8.75 -2.382812 8.984375 -1.710938 9.453125 -1.296875 C 9.929688 -0.890625 10.769531 -0.6875 11.96875 -0.6875 C 13.175781 -0.6875 14.195312 -0.890625 15.03125 -1.296875 C 15.863281 -1.710938 16.578125 -2.367188 17.171875 -3.265625 C 17.773438 -4.160156 18.320312 -5.335938 18.8125 -6.796875 L 19.5 -6.796875 L 18.65625 0 L 0.421875 0 L 0.421875 -0.6875 C 1.285156 -0.6875 1.929688 -0.742188 2.359375 -0.859375 C 2.796875 -0.984375 3.082031 -1.238281 3.21875 -1.625 C 3.363281 -2.007812 3.4375 -2.570312 3.4375 -3.3125 Z M 3.4375 -16.609375 "/></g></g><g style="fill:#fcfeff;fill-opacity:1;"><g transform="translate(236.526735, 52.879324)"><path style="stroke:none" d="M 0.421875 0 L 0.421875 -0.6875 C 1.285156 -0.6875 1.929688 -0.742188 2.359375 -0.859375 C 2.796875 -0.984375 3.082031 -1.238281 3.21875 -1.625 C 3.363281 -2.007812 3.4375 -2.570312 3.4375 -3.3125 L 3.4375 -16.609375 C 3.4375 -17.367188 3.363281 -17.929688 3.21875 -18.296875 C 3.082031 -18.671875 2.796875 -18.914062 2.359375 -19.03125 C 1.929688 -19.15625 1.285156 -19.21875 0.421875 -19.21875 L 0.421875 -19.921875 L 8.71875 -19.921875 L 18.828125 -6.4375 L 18.828125 -16.609375 C 18.828125 -17.367188 18.757812 -17.929688 18.625 -18.296875 C 18.5 -18.671875 18.25 -18.914062 17.875 -19.03125 C 17.507812 -19.15625 16.96875 -19.21875 16.25 -19.21875 L 15.984375 -19.21875 L 15.984375 -19.921875 L 22.53125 -19.921875 L 22.53125 -19.21875 C 21.675781 -19.21875 21.03125 -19.15625 20.59375 -19.03125 C 20.164062 -18.914062 19.878906 -18.671875 19.734375 -18.296875 C 19.597656 -17.929688 19.53125 -17.367188 19.53125 -16.609375 L 19.53125 0 L 17 0 L 4.125 -17.1875 L 4.125 -3.3125 C 4.125 -2.570312 4.191406 -2.007812 4.328125 -1.625 C 4.472656 -1.238281 4.757812 -0.984375 5.1875 -0.859375 C 5.625 -0.742188 6.269531 -0.6875 7.125 -0.6875 L 7.125 0 Z M 0.421875 0 "/></g></g><g style="fill:#fcfeff;fill-opacity:1;"><g transform="translate(258.882303, 52.879324)"><path style="stroke:none" d="M 0.90625 -9.953125 C 0.90625 -11.835938 1.253906 -13.550781 1.953125 -15.09375 C 2.660156 -16.644531 3.695312 -17.875 5.0625 -18.78125 C 6.4375 -19.695312 8.117188 -20.15625 10.109375 -20.15625 C 11.109375 -20.15625 11.941406 -20.054688 12.609375 -19.859375 C 13.285156 -19.660156 13.875 -19.453125 14.375 -19.234375 C 14.882812 -19.023438 15.359375 -18.921875 15.796875 -18.921875 C 16.097656 -18.921875 16.359375 -18.988281 16.578125 -19.125 C 16.796875 -19.269531 17.046875 -19.535156 17.328125 -19.921875 L 18.015625 -19.921875 L 18.015625 -13.03125 L 17.328125 -13.03125 C 16.648438 -15.070312 15.765625 -16.65625 14.671875 -17.78125 C 13.578125 -18.90625 12.378906 -19.46875 11.078125 -19.46875 C 10.171875 -19.46875 9.425781 -19.203125 8.84375 -18.671875 C 8.257812 -18.140625 7.796875 -17.414062 7.453125 -16.5 C 7.117188 -15.59375 6.878906 -14.578125 6.734375 -13.453125 C 6.597656 -12.328125 6.53125 -11.160156 6.53125 -9.953125 C 6.53125 -6.890625 6.9375 -4.539062 7.75 -2.90625 C 8.5625 -1.269531 9.769531 -0.453125 11.375 -0.453125 C 11.65625 -0.453125 12.050781 -0.503906 12.5625 -0.609375 C 13.070312 -0.722656 13.644531 -0.984375 14.28125 -1.390625 C 14.925781 -1.804688 15.570312 -2.453125 16.21875 -3.328125 C 16.863281 -4.203125 17.4375 -5.390625 17.9375 -6.890625 L 18.625 -6.890625 L 17.9375 -2.796875 C 17.226562 -2.054688 16.242188 -1.363281 14.984375 -0.71875 C 13.722656 -0.0820312 12.195312 0.234375 10.40625 0.234375 C 8.457031 0.234375 6.769531 -0.179688 5.34375 -1.015625 C 3.925781 -1.859375 2.832031 -3.046875 2.0625 -4.578125 C 1.289062 -6.117188 0.90625 -7.910156 0.90625 -9.953125 Z M 0.90625 -9.953125 "/></g></g><g style="fill:#fcfeff;fill-opacity:1;"><g transform="translate(277.868063, 52.879324)"><path style="stroke:none" d="M 0.421875 -0.6875 C 1.285156 -0.6875 1.929688 -0.742188 2.359375 -0.859375 C 2.796875 -0.984375 3.082031 -1.238281 3.21875 -1.625 C 3.363281 -2.007812 3.4375 -2.570312 3.4375 -3.3125 L 3.4375 -16.609375 C 3.4375 -17.367188 3.363281 -17.929688 3.21875 -18.296875 C 3.082031 -18.671875 2.796875 -18.914062 2.359375 -19.03125 C 1.929688 -19.15625 1.285156 -19.21875 0.421875 -19.21875 L 0.421875 -19.921875 L 11.765625 -19.921875 L 11.765625 -19.21875 C 10.898438 -19.21875 10.25 -19.15625 9.8125 -19.03125 C 9.382812 -18.914062 9.097656 -18.671875 8.953125 -18.296875 C 8.816406 -17.929688 8.75 -17.367188 8.75 -16.609375 L 8.75 -10.71875 L 17.296875 -10.71875 L 17.296875 -16.609375 C 17.296875 -17.367188 17.222656 -17.929688 17.078125 -18.296875 C 16.941406 -18.671875 16.65625 -18.914062 16.21875 -19.03125 C 15.789062 -19.15625 15.148438 -19.21875 14.296875 -19.21875 L 14.296875 -19.921875 L 25.640625 -19.921875 L 25.640625 -19.21875 C 24.773438 -19.21875 24.125 -19.15625 23.6875 -19.03125 C 23.257812 -18.914062 22.972656 -18.671875 22.828125 -18.296875 C 22.691406 -17.929688 22.625 -17.367188 22.625 -16.609375 L 22.625 -3.3125 C 22.625 -2.570312 22.691406 -2.007812 22.828125 -1.625 C 22.972656 -1.238281 23.257812 -0.984375 23.6875 -0.859375 C 24.125 -0.742188 24.773438 -0.6875 25.640625 -0.6875 L 25.640625 0 L 14.296875 0 L 14.296875 -0.6875 C 15.148438 -0.6875 15.789062 -0.742188 16.21875 -0.859375 C 16.65625 -0.984375 16.941406 -1.238281 17.078125 -1.625 C 17.222656 -2.007812 17.296875 -2.570312 17.296875 -3.3125 L 17.296875 -10.015625 L 8.75 -10.015625 L 8.75 -3.3125 C 8.75 -2.570312 8.816406 -2.007812 8.953125 -1.625 C 9.097656 -1.238281 9.382812 -0.984375 9.8125 -0.859375 C 10.25 -0.742188 10.898438 -0.6875 11.765625 -0.6875 L 11.765625 0 L 0.421875 0 Z M 0.421875 -0.6875 "/></g></g></g></svg>